<svg width="39" height="43" viewBox="0 0 39 43" fill="none" xmlns="http://www.w3.org/2000/svg">
<path d="M5.62215 39.5902L6.50383 38.3766L5.62215 39.5902ZM3.40983 37.3779L4.62336 36.4962L3.40983 37.3779ZM35.5902 37.3779L34.3766 36.4962L35.5902 37.3779ZM33.3779 39.5902L32.4962 38.3766L33.3779 39.5902ZM33.3779 3.40983L32.4962 4.62336L33.3779 3.40983ZM35.5902 5.62215L34.3766 6.50383L35.5902 5.62215ZM5.62215 3.40983L6.50383 4.62336L5.62215 3.40983ZM3.40983 5.62215L4.62336 6.50383L3.40983 5.62215ZM11.5 28C10.6716 28 10 28.6716 10 29.5C10 30.3284 10.6716 31 11.5 31V28ZM17.5 31C18.3284 31 19 30.3284 19 29.5C19 28.6716 18.3284 28 17.5 28V31ZM11.5 20C10.6716 20 10 20.6716 10 21.5C10 22.3284 10.6716 23 11.5 23V20ZM27.5 23C28.3284 23 29 22.3284 29 21.5C29 20.6716 28.3284 20 27.5 20V23ZM11.5 12C10.6716 12 10 12.6716 10 13.5C10 14.3284 10.6716 15 11.5 15V12ZM17.5 15C18.3284 15 19 14.3284 19 13.5C19 12.6716 18.3284 12 17.5 12V15ZM36 19.5V23.5H39V19.5H36ZM3 23.5V19.5H0V23.5H3ZM19.5 40C15.7169 40 13 39.9979 10.8961 39.77C8.82027 39.5451 7.51983 39.1148 6.50383 38.3766L4.74047 40.8037C6.35312 41.9754 8.24188 42.5 10.573 42.7525C12.876 43.0021 15.7837 43 19.5 43V40ZM0 23.5C0 27.2163 -0.00205886 30.124 0.247456 32.427C0.500012 34.7581 1.02465 36.6469 2.1963 38.2595L4.62336 36.4962C3.88518 35.4802 3.4549 34.1797 3.23 32.1039C3.00206 30 3 27.2831 3 23.5H0ZM6.50383 38.3766C5.78222 37.8524 5.14763 37.2178 4.62336 36.4962L2.1963 38.2595C2.90562 39.2358 3.76418 40.0944 4.74047 40.8037L6.50383 38.3766ZM36 23.5C36 27.2831 35.9979 30 35.77 32.1039C35.5451 34.1797 35.1148 35.4802 34.3766 36.4962L36.8037 38.2595C37.9754 36.6469 38.5 34.7581 38.7525 32.427C39.0021 30.124 39 27.2163 39 23.5H36ZM19.5 43C23.2163 43 26.124 43.0021 28.427 42.7525C30.7581 42.5 32.6469 41.9754 34.2595 40.8037L32.4962 38.3766C31.4802 39.1148 30.1797 39.5451 28.1039 39.77C26 39.9979 23.2831 40 19.5 40V43ZM34.3766 36.4962C33.8524 37.2178 33.2178 37.8524 32.4962 38.3766L34.2595 40.8037C35.2358 40.0944 36.0944 39.2358 36.8037 38.2595L34.3766 36.4962ZM19.5 3C23.2831 3 26 3.00206 28.1039 3.23C30.1797 3.4549 31.4802 3.88518 32.4962 4.62336L34.2595 2.1963C32.6469 1.02465 30.7581 0.500012 28.427 0.247456C26.124 -0.00205886 23.2163 0 19.5 0V3ZM39 19.5C39 15.7837 39.0021 12.876 38.7525 10.573C38.5 8.24188 37.9754 6.35312 36.8037 4.74047L34.3766 6.50383C35.1148 7.51983 35.5451 8.82027 35.77 10.8961C35.9979 13 36 15.7169 36 19.5H39ZM32.4962 4.62336C33.2178 5.14763 33.8524 5.78222 34.3766 6.50383L36.8037 4.74047C36.0944 3.76418 35.2358 2.90562 34.2595 2.1963L32.4962 4.62336ZM19.5 0C15.7837 0 12.876 -0.00205886 10.573 0.247456C8.24188 0.500012 6.35312 1.02465 4.74047 2.1963L6.50383 4.62336C7.51983 3.88518 8.82027 3.4549 10.8961 3.23C13 3.00206 15.7169 3 19.5 3V0ZM3 19.5C3 15.7169 3.00206 13 3.23 10.8961C3.4549 8.82027 3.88518 7.51983 4.62336 6.50383L2.1963 4.74047C1.02465 6.35312 0.500012 8.24188 0.247456 10.573C-0.00205886 12.876 0 15.7837 0 19.5H3ZM4.74047 2.1963C3.76418 2.90562 2.90562 3.76418 2.1963 4.74047L4.62336 6.50383C5.14763 5.78222 5.78222 5.14763 6.50383 4.62336L4.74047 2.1963ZM11.5 31H17.5V28H11.5V31ZM11.5 23H27.5V20H11.5V23ZM11.5 15H17.5V12H11.5V15Z" fill="#2D264B"/>
</svg>
