<svg width="35" height="46" viewBox="0 0 35 46" fill="none" xmlns="http://www.w3.org/2000/svg">
<path d="M23.0616 38.901L21.8812 37.9753L23.0616 38.901ZM11.9384 38.901L10.7581 39.8266L11.9384 38.901ZM17.5 43.5109V42.0109V43.5109ZM32 18.7174C32 21.1704 30.7208 24.4527 28.7075 28.0121C26.7274 31.5127 24.1684 35.0587 21.8812 37.9753L24.2419 39.8266C26.5742 36.8524 29.2345 33.1739 31.3187 29.489C33.3698 25.8629 35 21.9988 35 18.7174H32ZM13.1188 37.9753C10.8316 35.0587 8.27256 31.5127 6.2925 28.0121C4.27924 24.4527 3 21.1704 3 18.7174H0C0 21.9988 1.63021 25.8629 3.68128 29.489C5.76555 33.1739 8.42576 36.8524 10.7581 39.8266L13.1188 37.9753ZM3 18.7174C3 9.93143 9.59356 3 17.5 3V0C7.73332 0 0 8.48555 0 18.7174H3ZM17.5 3C25.4064 3 32 9.93143 32 18.7174H35C35 8.48555 27.2667 0 17.5 0V3ZM21.8812 37.9753C20.6433 39.5539 19.8283 40.5851 19.0984 41.2481C18.4327 41.8528 17.9884 42.0109 17.5 42.0109V45.0109C18.9581 45.0109 20.0895 44.4007 21.1155 43.4688C22.0773 42.5951 23.0698 41.3213 24.2419 39.8266L21.8812 37.9753ZM10.7581 39.8266C11.9302 41.3213 12.9227 42.5951 13.8845 43.4688C14.9105 44.4007 16.0419 45.0109 17.5 45.0109V42.0109C17.0116 42.0109 16.5673 41.8528 15.9016 41.2481C15.1717 40.5851 14.3567 39.5539 13.1188 37.9753L10.7581 39.8266ZM10 19.5C10 23.6421 13.3579 27 17.5 27V24C15.0147 24 13 21.9853 13 19.5H10ZM17.5 27C21.6421 27 25 23.6421 25 19.5H22C22 21.9853 19.9853 24 17.5 24V27ZM25 19.5C25 15.3579 21.6421 12 17.5 12V15C19.9853 15 22 17.0147 22 19.5H25ZM17.5 12C13.3579 12 10 15.3579 10 19.5H13C13 17.0147 15.0147 15 17.5 15V12Z" fill="#2D264B"/>
</svg>
