<svg width="39" height="39" viewBox="0 0 39 39" fill="none" xmlns="http://www.w3.org/2000/svg">
<path d="M15.5 37.5V36V37.5ZM13.5 37.5V39V37.5ZM1.50003 25.5H3.00003H1.50003ZM1.50003 13.5H3.09944e-05H1.50003ZM13.5 1.5V0V1.5ZM15.5 1.5V3V1.5ZM1.62315 9.93565L0.141614 9.70099L0.141614 9.701L1.62315 9.93565ZM9.93568 1.62312L10.1703 3.10465L9.93568 1.62312ZM9.93568 37.3769L9.70103 38.8584H9.70103L9.93568 37.3769ZM1.62314 29.0643L0.141613 29.299L0.141613 29.299L1.62314 29.0643ZM22.4009 36.7001C23.0633 36.2025 23.1969 35.2622 22.6994 34.5998C22.2018 33.9375 21.2615 33.8038 20.5991 34.3014L22.4009 36.7001ZM20.5991 4.69861C21.2615 5.19615 22.2018 5.06251 22.6994 4.40013C23.1969 3.73775 23.0633 2.79745 22.4009 2.29992L20.5991 4.69861ZM9.50002 18C8.6716 18 8.00002 18.6716 8.00002 19.5C8.00002 20.3284 8.6716 21 9.50002 21V18ZM35.5 19.5V21V19.5ZM30.4319 10.3246C29.7828 9.80993 28.8393 9.91891 28.3246 10.5681C27.8099 11.2172 27.9189 12.1607 28.5681 12.6754L30.4319 10.3246ZM33.0259 14.2957L33.9579 13.1203L33.0259 14.2957ZM33.0259 24.7043L33.9579 25.8797L33.0259 24.7043ZM28.5681 26.3246C27.9189 26.8393 27.8099 27.7828 28.3246 28.4319C28.8393 29.0811 29.7828 29.19 30.4319 28.6753L28.5681 26.3246ZM37.4602 18.9987L38.9415 18.7626V18.7626L37.4602 18.9987ZM37.4602 20.0013L38.9415 20.2373V20.2373L37.4602 20.0013ZM37.5 19.5H39H37.5ZM15.5 36H13.5V39H15.5V36ZM3.00003 25.5L3.00003 13.5H3.09944e-05L3.05176e-05 25.5H3.00003ZM13.5 3L15.5 3V1.19209e-07L13.5 0V3ZM3.00003 13.5C3.00003 11.5847 3.00468 10.8016 3.10468 10.1703L0.141614 9.701C-0.00462389 10.6243 3.11136e-05 11.6993 3.09944e-05 13.5H3.00003ZM13.5 0C11.6993 -1.19209e-07 10.6243 -0.00465536 9.70103 0.141584L10.1703 3.10465C10.8017 3.00465 11.5847 3 13.5 3V0ZM3.10468 10.1703C3.68073 6.53322 6.53325 3.6807 10.1703 3.10465L9.70103 0.141584C4.78027 0.920956 0.920986 4.78023 0.141614 9.70099L3.10468 10.1703ZM13.5 36C11.5847 36 10.8017 35.9953 10.1703 35.8953L9.70103 38.8584C10.6243 39.0046 11.6993 39 13.5 39V36ZM3.05176e-05 25.5C3.03983e-05 27.3007 -0.00462472 28.3757 0.141613 29.299L3.10468 28.8297C3.00468 28.1983 3.00003 27.4153 3.00003 25.5H3.05176e-05ZM10.1703 35.8953C6.53325 35.3193 3.68073 32.4668 3.10468 28.8297L0.141613 29.299C0.920985 34.2197 4.78027 38.079 9.70103 38.8584L10.1703 35.8953ZM15.5 39C18.0872 39 20.4787 38.1438 22.4009 36.7001L20.5991 34.3014C19.1787 35.3683 17.4153 36 15.5 36V39ZM15.5 3C17.4153 3 19.1787 3.63165 20.5991 4.69861L22.4009 2.29992C20.4787 0.856127 18.0872 2.38418e-07 15.5 1.19209e-07V3ZM9.50002 21L35.5 21V18L9.50002 18V21ZM28.5681 12.6754L32.094 15.471L33.9579 13.1203L30.4319 10.3246L28.5681 12.6754ZM32.094 23.5289L28.5681 26.3246L30.4319 28.6753L33.9579 25.8797L32.094 23.5289ZM32.094 15.471C33.5286 16.6086 34.5023 17.3835 35.1577 18.0364C35.8064 18.6826 35.9451 19.0223 35.9789 19.2347L38.9415 18.7626C38.7589 17.6163 38.0863 16.7192 37.275 15.911C36.4703 15.1095 35.3351 14.2123 33.9579 13.1203L32.094 15.471ZM33.9579 25.8797C35.3351 24.7877 36.4703 23.8905 37.275 23.089C38.0863 22.2807 38.7589 21.3837 38.9415 20.2373L35.9789 19.7653C35.9451 19.9777 35.8064 20.3173 35.1577 20.9635C34.5023 21.6164 33.5286 22.3914 32.094 23.5289L33.9579 25.8797ZM35.9789 19.2347C35.993 19.3233 36 19.4119 36 19.5H39C39 19.2532 38.9804 19.0069 38.9415 18.7626L35.9789 19.2347ZM36 19.5C36 19.5881 35.993 19.6766 35.9789 19.7653L38.9415 20.2373C38.9804 19.9931 39 19.7468 39 19.5H36ZM35.5 21H37.5V18H35.5V21Z" fill="#CF0221"/>
</svg>
