<svg width="36" height="45" viewBox="0 0 36 45" fill="none" xmlns="http://www.w3.org/2000/svg">
<path d="M12.0001 39.9438L12.6069 40.7528C15.3372 44.3933 20.7979 44.3933 23.5282 40.7528L24.135 39.9438M2.25753 28.9206L2.46655 29.3515C3.80901 32.119 6.61463 33.8764 9.69062 33.8764H26.317C28.9529 33.8764 31.4061 32.5298 32.8214 30.306C34.8191 27.167 34.29 23.049 31.5636 20.517L31.4748 20.4346C29.6237 18.7155 28.7123 16.211 29.0257 13.7042L29.1563 12.6588C29.8959 6.7425 25.2828 1.51685 19.3205 1.51685H15.8764C9.92133 1.51685 5.31385 6.73613 6.05248 12.6452L6.21298 13.9291C6.50854 16.2937 5.64483 18.6555 3.8936 20.2715C1.50159 22.4788 0.837015 25.992 2.25753 28.9206Z" stroke="#2D264B" stroke-width="1.5" stroke-linecap="round"/>
</svg>
