<svg width="31" height="41" viewBox="0 0 31 41" fill="none" xmlns="http://www.w3.org/2000/svg">
<path d="M22 9.5C22 13.0899 19.0899 16 15.5 16V19C20.7467 19 25 14.7467 25 9.5H22ZM15.5 16C11.9101 16 9 13.0899 9 9.5H6C6 14.7467 10.2533 19 15.5 19V16ZM9 9.5C9 5.91015 11.9101 3 15.5 3V0C10.2533 0 6 4.25329 6 9.5H9ZM15.5 3C19.0899 3 22 5.91015 22 9.5H25C25 4.25329 20.7467 0 15.5 0V3ZM9.5 25H21.5V22H9.5V25ZM21.5 38H9.5V41H21.5V38ZM9.5 38C5.91015 38 3 35.0899 3 31.5H0C0 36.7467 4.25329 41 9.5 41V38ZM28 31.5C28 35.0899 25.0899 38 21.5 38V41C26.7467 41 31 36.7467 31 31.5H28ZM21.5 25C25.0899 25 28 27.9101 28 31.5H31C31 26.2533 26.7467 22 21.5 22V25ZM9.5 22C4.2533 22 0 26.2533 0 31.5H3C3 27.9101 5.91015 25 9.5 25V22Z" fill="#2D264B"/>
</svg>
