<svg width="39" height="43" viewBox="0 0 39 43" fill="none" xmlns="http://www.w3.org/2000/svg">
<path d="M24.9613 1.50292C26.8981 1.50292 28.4682 3.07298 28.4682 5.00975C28.4682 6.94651 30.0382 8.51657 31.975 8.51657H33.156C35.5832 8.51657 37.5868 10.3733 37.4938 12.7987C37.3316 17.0327 36.5077 23.7079 33.2979 29.5575C32.451 31.1009 31.3008 32.6496 30.0234 34.1253C26.0559 38.7093 24.0721 41.0012 19.493 41.0012C14.9139 41.0012 12.9301 38.7093 8.96258 34.1253C7.68525 32.6496 6.53505 31.1009 5.68817 29.5575C2.57447 23.8831 1.7058 17.8538 1.50844 13.9445C1.38638 11.5266 3.38674 9.68551 5.80765 9.68551H6.42658C8.68614 9.68551 10.5179 7.85378 10.5179 5.59422C10.5179 3.33466 12.3496 1.50292 14.6092 1.50292H24.9613Z" stroke="#2D264B" stroke-width="1.5"/>
</svg>
