<svg width="45" height="39" viewBox="0 0 45 39" fill="none" xmlns="http://www.w3.org/2000/svg">
<path d="M9.35786 11.3579L10.4185 10.2972L9.35786 11.3579ZM5.5 7.5L4.43934 8.56066L5.5 7.5ZM21.5 36C20.6716 36 20 36.6716 20 37.5C20 38.3284 20.6716 39 21.5 39V36ZM41.5902 33.3779L40.3766 32.4962V32.4962L41.5902 33.3779ZM39.3779 35.5902L38.4962 34.3766V34.3766L39.3779 35.5902ZM39.3779 3.40983L40.2595 2.19631V2.1963L39.3779 3.40983ZM41.5902 5.62215L40.3766 6.50382V6.50382L41.5902 5.62215ZM7.62215 3.40983L6.74047 2.1963L6.74047 2.1963L7.62215 3.40983ZM2 19.5C2 20.3284 2.67157 21 3.5 21C4.32843 21 5 20.3284 5 19.5H2ZM5.40983 5.62215L4.1963 4.74047L4.1963 4.74047L5.40983 5.62215ZM1.5 32C0.671573 32 0 32.6716 0 33.5C0 34.3284 0.671573 35 1.5 35V32ZM13.5 35C14.3284 35 15 34.3284 15 33.5C15 32.6716 14.3284 32 13.5 32V35ZM1.5 26C0.671573 26 0 26.6716 0 27.5C0 28.3284 0.671573 29 1.5 29V26ZM7.5 29C8.32843 29 9 28.3284 9 27.5C9 26.6716 8.32843 26 7.5 26V29ZM4.74206 6.74206L3.39075 6.09092L4.74206 6.74206ZM10.4185 10.2972L6.80331 6.68199L4.68199 8.80331L8.2972 12.4185L10.4185 10.2972ZM40.1967 6.68199L36.5815 10.2972L38.7028 12.4185L42.318 8.80331L40.1967 6.68199ZM8.2972 12.4185C11.6006 15.7219 14.1825 18.3083 16.4658 20.0504C18.7836 21.8189 20.9691 22.8579 23.5 22.8579V19.8579C21.8888 19.8579 20.3365 19.2302 18.2855 17.6653C16.1999 16.0741 13.7818 13.6605 10.4185 10.2972L8.2972 12.4185ZM36.5815 10.2972C33.2182 13.6605 30.8001 16.0741 28.7145 17.6653C26.6635 19.2302 25.1112 19.8579 23.5 19.8579V22.8579C26.0309 22.8579 28.2164 21.8189 30.5342 20.0504C32.8175 18.3083 35.3994 15.7219 38.7028 12.4185L36.5815 10.2972ZM10.4185 10.2972L6.56066 6.43934L4.43934 8.56066L8.2972 12.4185L10.4185 10.2972ZM40.4393 6.43934L36.5815 10.2972L38.7028 12.4185L42.5607 8.56066L40.4393 6.43934ZM21.5 3H25.5V0H21.5V3ZM25.5 36H21.5V39H25.5V36ZM42 19.5C42 23.2831 41.9979 26 41.77 28.1039C41.5451 30.1797 41.1148 31.4802 40.3766 32.4962L42.8037 34.2595C43.9754 32.6469 44.5 30.7581 44.7525 28.427C45.0021 26.124 45 23.2163 45 19.5H42ZM25.5 39C29.2163 39 32.124 39.0021 34.427 38.7525C36.7581 38.5 38.6469 37.9754 40.2595 36.8037L38.4962 34.3766C37.4802 35.1148 36.1797 35.5451 34.1039 35.77C32 35.9979 29.2831 36 25.5 36V39ZM40.3766 32.4962C39.8524 33.2178 39.2178 33.8524 38.4962 34.3766L40.2595 36.8037C41.2358 36.0944 42.0944 35.2358 42.8037 34.2595L40.3766 32.4962ZM25.5 3C29.2831 3 32 3.00206 34.1039 3.23C36.1797 3.4549 37.4802 3.88518 38.4962 4.62336L40.2595 2.1963C38.6469 1.02465 36.7581 0.500012 34.427 0.247456C32.124 -0.00205886 29.2163 0 25.5 0V3ZM38.4962 4.62335C39.2178 5.14763 39.8524 5.78222 40.3766 6.50382L42.8037 4.74047C42.0944 3.76418 41.2358 2.90562 40.2595 2.19631L38.4962 4.62335ZM21.5 0C17.7837 0 14.876 -0.00205886 12.573 0.247456C10.2419 0.500012 8.35312 1.02465 6.74047 2.1963L8.50383 4.62336C9.51983 3.88518 10.8203 3.4549 12.8961 3.23C15 3.00206 17.7169 3 21.5 3V0ZM6.74047 2.1963C5.76418 2.90562 4.90562 3.76418 4.1963 4.74047L6.62336 6.50383C7.14763 5.78222 7.78222 5.14763 8.50383 4.62336L6.74047 2.1963ZM1.5 35H13.5V32H1.5V35ZM1.5 29H7.5V26H1.5V29ZM5 19.5C5 16.2296 5.00097 13.7499 5.151 11.7641C5.30075 9.78186 5.59175 8.43419 6.09336 7.39319L3.39075 6.09092C2.65031 7.62757 2.32028 9.41012 2.15952 11.5381C1.99903 13.6625 2 16.2729 2 19.5H5ZM6.09336 7.39319C6.24695 7.07445 6.42225 6.78062 6.62336 6.50383L4.1963 4.74047C3.88708 5.16608 3.62024 5.61468 3.39075 6.09092L6.09336 7.39319ZM6.56066 6.43934L5.80272 5.6814L3.6814 7.80272L4.43934 8.56066L6.56066 6.43934ZM45 19.5C45 16.2729 45.001 13.6625 44.8405 11.5381C44.6797 9.41012 44.3497 7.62757 43.6092 6.09092L40.9066 7.39319C41.4082 8.43419 41.6993 9.78186 41.849 11.7641C41.999 13.7499 42 16.2296 42 19.5H45ZM43.6092 6.09092C43.3798 5.61468 43.1129 5.16608 42.8037 4.74047L40.3766 6.50382C40.5778 6.78062 40.753 7.07445 40.9066 7.39319L43.6092 6.09092ZM42.5607 8.56066L43.3186 7.80272L41.1973 5.6814L40.4393 6.43934L42.5607 8.56066Z" fill="black"/>
</svg>
