<svg width="43" height="35" viewBox="0 0 43 35" fill="none" xmlns="http://www.w3.org/2000/svg">
<path d="M21.5 21.9999C20.6716 21.9999 20 22.6715 20 23.4999C20 24.3284 20.6716 24.9999 21.5 24.9999V21.9999ZM29 17.5C29 16.6715 28.3284 16 27.5 16C26.6716 16 26 16.6715 26 17.5H29ZM3.94139 13.7508L2.72287 12.876L3.94139 13.7508ZM3.94095 21.2485L5.15947 20.3738L5.15947 20.3738L3.94095 21.2485ZM9.07598 27.2855L10.2019 26.2944L10.1639 26.2512L10.1226 26.2111L9.07598 27.2855ZM33.702 7.49998L32.6647 8.58345L32.7073 8.62424L32.753 8.66156L33.702 7.49998ZM2.17389 17.4999L0.673891 17.4999L2.17389 17.4999ZM39.0586 21.2491L40.2771 22.1239V22.1239L39.0586 21.2491ZM39.0585 13.7506L37.84 14.6254L37.84 14.6254L39.0585 13.7506ZM38.2906 10.2815C37.7664 9.64004 36.8214 9.54502 36.18 10.0693C35.5385 10.5935 35.4435 11.5385 35.9677 12.1799L38.2906 10.2815ZM13.3751 28.9643C12.7022 28.481 11.765 28.6347 11.2817 29.3075C10.7984 29.9804 10.9521 30.9176 11.625 31.4009L13.3751 28.9643ZM40.8261 17.4999L39.3261 17.4999L40.8261 17.4999ZM0.563017 32.3286C-0.0838741 32.8461 -0.188756 33.7901 0.328757 34.4369C0.84627 35.0838 1.79021 35.1887 2.4371 34.6712L0.563017 32.3286ZM42.437 2.6713C43.0839 2.15378 43.1888 1.20985 42.6712 0.562956C42.1537 -0.0839353 41.2098 -0.188817 40.5629 0.328696L42.437 2.6713ZM33.8494 7.62041L34.7865 8.7917L33.8494 7.62041ZM9.15533 27.3757L10.0924 28.547L9.15533 27.3757ZM21.5 9.99997C17.3579 9.99997 14 13.3578 14 17.5H17C17 15.0147 19.0147 13 21.5 13V9.99997ZM14 17.5C14 19.2616 14.6092 20.885 15.6273 22.1652L17.9753 20.2979C17.3642 19.5295 17 18.5593 17 17.5H14ZM27.3547 12.8122C25.9827 11.1004 23.8694 9.99997 21.5 9.99997V13C22.9205 13 24.1867 13.6564 25.0139 14.6884L27.3547 12.8122ZM21.5 24.9999C25.6421 24.9999 29 21.6421 29 17.5H26C26 19.9852 23.9853 21.9999 21.5 21.9999V24.9999ZM21.5 0C17.2181 0 13.3465 2.11798 10.2035 4.69142C7.0433 7.27891 4.45927 10.4573 2.72287 12.876L5.1599 14.6255C6.81843 12.3153 9.22699 9.36825 12.104 7.0126C14.9982 4.64291 18.2085 2.99999 21.5 2.99999V0ZM2.72242 22.1233C4.04614 23.9672 5.85503 26.242 8.02933 28.36L10.1226 26.2111C8.1121 24.2526 6.41662 22.125 5.15947 20.3738L2.72242 22.1233ZM34.7394 6.41651C31.2745 3.09916 26.6815 0 21.5 0V2.99999C25.5056 2.99999 29.3765 5.43523 32.6647 8.58345L34.7394 6.41651ZM2.72287 12.876C1.61413 14.4204 0.673905 15.6427 0.673891 17.4999L3.67388 17.4999C3.67389 16.7829 3.91199 16.3638 5.1599 14.6255L2.72287 12.876ZM5.15947 20.3738C3.91189 18.6359 3.67388 18.217 3.67388 17.4999L0.673891 17.4999C0.673877 19.3571 1.61391 20.5791 2.72242 22.1233L5.15947 20.3738ZM21.5 34.9999C25.7819 34.9999 29.6535 32.8819 32.7965 30.3085C35.9567 27.721 38.5407 24.5426 40.2771 22.1239L37.8401 20.3744C36.1816 22.6846 33.773 25.6317 30.896 27.9873C28.0018 30.357 24.7915 31.9999 21.5 31.9999V34.9999ZM40.277 12.8758C39.7017 12.0744 39.0363 11.1938 38.2906 10.2815L35.9677 12.1799C36.6687 13.0377 37.2961 13.8678 37.84 14.6254L40.277 12.8758ZM11.625 31.4009C14.474 33.4473 17.8352 34.9999 21.5 34.9999V31.9999C18.6904 31.9999 15.9364 30.804 13.3751 28.9643L11.625 31.4009ZM40.2771 22.1239C41.3859 20.5795 42.3261 19.3571 42.3261 17.4999L39.3261 17.4999C39.3261 18.217 39.088 18.6361 37.8401 20.3744L40.2771 22.1239ZM37.84 14.6254C39.088 16.3638 39.3261 16.7829 39.3261 17.4999L42.3261 17.4999C42.3261 15.6427 41.3858 14.4204 40.277 12.8758L37.84 14.6254ZM34.7865 8.7917L42.437 2.6713L40.5629 0.328696L32.9124 6.44911L34.7865 8.7917ZM32.753 8.66156L32.9004 8.78199L34.7985 6.45882L34.6511 6.3384L32.753 8.66156ZM2.4371 34.6712L10.0924 28.547L8.21829 26.2044L0.563017 32.3286L2.4371 34.6712ZM10.0924 28.547L34.7865 8.7917L32.9124 6.44911L8.21829 26.2044L10.0924 28.547ZM7.9501 28.2767L8.02945 28.3668L10.2812 26.3845L10.2019 26.2944L7.9501 28.2767Z" fill="#2D264B"/>
</svg>
