<svg width="369" height="110" viewBox="0 0 369 110" fill="none" xmlns="http://www.w3.org/2000/svg">
<path d="M73.6355 75.1564L72.1708 76.52L72.1828 76.5328L72.195 76.5454L73.6355 75.1564ZM46.8677 60.5558L47.5969 58.6923L47.5491 58.6735L47.5005 58.6572L46.8677 60.5558ZM42.4571 58.8828L41.707 60.7383L41.7279 60.7463L42.4571 58.8828ZM20.4041 47.324L19.1931 48.9173L19.2083 48.9287L20.4041 47.324ZM58.5786 14.3205L57.9796 16.2298L58.0017 16.2368L58.0239 16.2432L58.5786 14.3205ZM71.05 20.7082L69.7112 22.1957L69.7234 22.2065L69.7356 22.2173L71.05 20.7082ZM75.7648 29.9857L76.6597 31.7756L77.7659 31.2224V29.9857H75.7648ZM68.4644 30.1378L67.5695 31.9277L67.656 31.9709L67.746 32.0055L68.4644 30.1378ZM62.9892 27.2481L63.9424 25.4885L63.938 25.4861L62.9892 27.2481ZM51.8867 22.2291L51.172 24.0982L51.1962 24.1076L51.2207 24.1162L51.8867 22.2291ZM23.5979 39.5674L22.2133 41.0122L22.2279 41.0262L22.2429 41.04L23.5979 39.5674ZM33.0275 45.8031L32.152 47.6025L32.181 47.6167L32.2102 47.6297L33.0275 45.8031ZM48.3886 52.0387L49.1116 50.1726L49.101 50.1686L48.3886 52.0387ZM81.8483 71.3541L80.3288 72.6565L80.3457 72.6759L80.3627 72.6949L81.8483 71.3541ZM77.7419 102.076L78.7231 103.821L78.7435 103.809L77.7419 102.076ZM12.0391 94.3197L10.7464 95.8474L10.7638 95.8618L12.0391 94.3197ZM2.00118 78.3503H0V78.577L0.0507101 78.7979L2.00118 78.3503ZM4.28253 71.3541L5.85322 72.5941L5.86859 72.5747L5.88348 72.5549L4.28253 71.3541ZM9.90985 68.3124H11.911V66.3112H9.90985V68.3124ZM15.3851 85.1943L13.8092 86.4277L13.824 86.4467L13.8393 86.4653L15.3851 85.1943ZM30.442 95.5364L29.746 97.4127L29.7558 97.4163L30.442 95.5364ZM51.5825 101.036C60.0383 101.036 66.8411 99.8574 71.8086 97.3183L69.9871 93.7546C65.8293 95.8796 59.7553 97.0333 51.5825 97.0333V101.036ZM71.8086 97.3183C74.3175 96.0361 76.3199 94.3988 77.6921 92.3558C79.0745 90.2975 79.7431 87.937 79.7431 85.3464H75.7407C75.7407 87.2171 75.2687 88.7855 74.3697 90.124C73.4606 91.4776 72.041 92.7048 69.9871 93.7546L71.8086 97.3183ZM79.7431 85.3464C79.7431 80.8754 78.1744 76.9805 75.076 73.7674L72.195 76.5454C74.5718 79.0105 75.7407 81.9088 75.7407 85.3464H79.7431ZM75.1002 73.7928C72.18 70.6563 68.5827 68.0352 64.3404 65.9141L62.5505 69.4939C66.4196 71.4284 69.6157 73.7756 72.1708 76.52L75.1002 73.7928ZM64.3404 65.9141C60.2072 63.8475 54.6181 61.4395 47.5969 58.6923L46.1385 62.4193C53.1096 65.1473 58.5724 67.5049 62.5505 69.4939L64.3404 65.9141ZM47.5005 58.6572C46.9515 58.4743 45.5355 57.9384 43.1863 57.0193L41.7279 60.7463C44.0428 61.6522 45.5671 62.2316 46.2349 62.4543L47.5005 58.6572ZM43.2071 57.0275C33.7527 53.2054 26.5773 49.428 21.5998 45.7192L19.2083 48.9287C24.5729 52.9259 32.0994 56.8544 41.707 60.7383L43.2071 57.0275ZM21.615 45.7306C17.0161 42.2355 14.8007 37.844 14.8007 32.4192H10.7984C10.7984 39.1615 13.6527 44.7064 19.1931 48.9173L21.615 45.7306ZM14.8007 32.4192C14.8007 26.2551 17.1836 21.7945 21.941 18.7425L19.7797 15.3737C13.7895 19.2165 10.7984 24.9966 10.7984 32.4192H14.8007ZM21.941 18.7425C26.9047 15.5582 33.3925 13.8882 41.5445 13.8882V9.88584C32.8652 9.88584 25.5637 11.6633 19.7797 15.3737L21.941 18.7425ZM41.5445 13.8882C47.5545 13.8882 53.0275 14.6763 57.9796 16.2298L59.1776 12.4111C53.7876 10.7199 47.9045 9.88584 41.5445 9.88584V13.8882ZM58.0239 16.2432C63.0999 17.7075 66.9578 19.7175 69.7112 22.1957L72.3888 19.2208C69.0588 16.2238 64.6022 13.9753 59.1333 12.3977L58.0239 16.2432ZM69.7356 22.2173C72.5421 24.6616 73.7636 27.2373 73.7636 29.9857H77.7659C77.7659 25.8395 75.8442 22.2301 72.3644 19.1991L69.7356 22.2173ZM74.8698 28.1959C73.8708 28.6954 73.0105 28.8971 72.2667 28.8971V32.8994C73.7536 32.8994 75.2252 32.4928 76.6597 31.7756L74.8698 28.1959ZM72.2667 28.8971C71.3317 28.8971 70.3079 28.7028 69.1829 28.2701L67.746 32.0055C69.2571 32.5868 70.7682 32.8994 72.2667 32.8994V28.8971ZM69.3594 28.3479C68.1733 27.7548 66.3718 26.8044 63.9424 25.4885L62.036 29.0077C64.4735 30.3279 66.3222 31.3041 67.5695 31.9277L69.3594 28.3479ZM63.938 25.4861C59.9124 23.3186 56.1163 21.5998 52.5526 20.342L51.2207 24.1162C54.5516 25.2919 58.1574 26.9191 62.0404 29.0101L63.938 25.4861ZM52.6013 20.3598C48.8745 18.935 44.5661 18.2508 39.7195 18.2508V22.2531C44.2011 22.2531 48.0042 22.8871 51.172 24.0982L52.6013 20.3598ZM39.7195 18.2508C33.6299 18.2508 28.4954 19.2976 24.4512 21.5443L26.3948 25.0432C29.6509 23.2341 34.0475 22.2531 39.7195 22.2531V18.2508ZM24.4512 21.5443C20.2762 23.8639 17.9466 27.3157 17.9466 31.8108H21.949C21.949 29.0055 23.2695 26.7794 26.3948 25.0432L24.4512 21.5443ZM17.9466 31.8108C17.9466 35.2967 19.4657 38.3791 22.2133 41.0122L24.9826 38.1225C22.8633 36.0915 21.949 34.0029 21.949 31.8108H17.9466ZM22.2429 41.04C24.9473 43.5281 28.2613 45.7098 32.152 47.6025L33.903 44.0036C30.2907 42.2462 27.3181 40.2708 24.9529 38.0947L22.2429 41.04ZM32.2102 47.6297C36.1121 49.3754 41.2718 51.469 47.6762 53.9088L49.101 50.1686C42.7298 47.7416 37.6488 45.6782 33.8448 43.9764L32.2102 47.6297ZM47.6656 53.9046C55.7371 57.0325 62.3566 59.9434 67.5423 62.636L69.3866 59.0839C64.0274 56.3013 57.263 53.3311 49.1116 50.1726L47.6656 53.9046ZM67.5423 62.636C72.6007 65.2626 76.8554 68.6041 80.3288 72.6565L83.3678 70.0518C79.541 65.5871 74.873 61.9326 69.3866 59.0839L67.5423 62.636ZM80.3627 72.6949C83.7709 76.4716 85.4745 80.9574 85.4745 86.259H89.4769C89.4769 80.0017 87.429 74.551 83.334 70.0134L80.3627 72.6949ZM85.4745 86.259C85.4745 92.2527 82.6882 96.905 76.7403 100.344L78.7435 103.809C85.7739 99.7443 89.4769 93.852 89.4769 86.259H85.4745ZM76.7607 100.332C70.6467 103.771 62.9468 105.55 53.5596 105.55V109.553C63.4373 109.553 71.8588 107.682 78.7231 103.821L76.7607 100.332ZM53.5596 105.55C46.1541 105.55 38.8454 104.465 31.6279 102.289L30.4728 106.122C38.0587 108.408 45.7562 109.553 53.5596 109.553V105.55ZM31.6279 102.289C24.4482 100.126 18.3564 96.9469 13.3144 92.7776L10.7638 95.8618C16.2666 100.412 22.8491 103.824 30.4728 106.122L31.6279 102.289ZM13.3318 92.792C8.35866 88.5841 5.26571 83.6282 3.95165 77.9026L0.0507101 78.7979C1.57567 85.4425 5.17458 91.1328 10.7464 95.8474L13.3318 92.792ZM4.00236 78.3503C4.00236 76.0077 4.64338 74.1266 5.85322 72.5941L2.71184 70.1142C0.87988 72.4346 0 75.2176 0 78.3503H4.00236ZM5.88348 72.5549C7.08537 70.9523 8.40122 70.3135 9.90985 70.3135V66.3112C6.95719 66.3112 4.52149 67.7002 2.68158 70.1534L5.88348 72.5549ZM7.90867 68.3124C7.90867 75.2967 9.8523 81.3717 13.8092 86.4277L16.961 83.961C13.6176 79.6887 11.911 74.5092 11.911 68.3124H7.90867ZM13.8393 86.4653C17.8447 91.3366 23.1735 94.9745 29.746 97.4127L31.138 93.6601C25.1377 91.4342 20.4287 88.1775 16.9308 83.9234L13.8393 86.4653ZM29.7558 97.4163C36.3907 99.8386 43.6734 101.036 51.5825 101.036V97.0333C44.0798 97.0333 37.269 95.8984 31.1282 93.6565L29.7558 97.4163ZM170.152 104.814L170.544 106.776L170.57 106.771L170.595 106.765L170.152 104.814ZM164.829 101.164L162.93 101.797L162.937 101.816L164.829 101.164ZM163.156 87.7799L165.157 87.7454L165.156 87.7328L163.156 87.7799ZM162.243 66.1831L160.245 66.2866L160.246 66.3048L160.247 66.3232L162.243 66.1831ZM160.418 50.3658L162.382 49.9815L161.888 47.4564L159.562 48.5569L160.418 50.3658ZM132.434 62.685L133.177 64.5431L133.187 64.5389L132.434 62.685ZM118.746 68.0082L120.747 67.9894L116.744 68.0082H118.746ZM119.05 100.403H121.051L121.051 100.384L119.05 100.403ZM116.312 103.293L116.72 105.252L116.746 105.247L116.312 103.293ZM111.445 99.1866L109.488 99.6018L109.495 99.6371L109.504 99.6719L111.445 99.1866ZM109.924 83.5213L107.924 83.5848L107.925 83.607L109.924 83.5213ZM109.012 69.9853L110.99 69.681L110.572 66.9678L108.117 68.1955L109.012 69.9853ZM101.711 71.9625L99.9216 72.8574L100.444 73.9029L101.612 73.9613L101.711 71.9625ZM101.103 66.9435L100.401 65.0698L99.1019 65.5567V66.9435H101.103ZM103.993 65.8789L103.36 63.9804L103.334 63.989L103.309 63.9982L103.993 65.8789ZM105.97 38.5027L107.962 38.3112L107.96 38.2906L107.958 38.2702L105.97 38.5027ZM104.297 14.9288L102.296 14.8854L102.296 14.907V14.9288H104.297ZM104.449 7.93268L102.61 7.14442L102.457 7.50123L102.449 7.88926L104.449 7.93268ZM105.514 6.56388L104.77 4.70578L104.693 4.7368L104.619 4.77402L105.514 6.56388ZM110.076 7.93268H108.075V8.04875L108.089 8.16422L110.076 7.93268ZM116.312 61.4683L114.324 61.6998L114.588 63.9622L116.798 63.4097L116.312 61.4683ZM160.874 41.6966L161.743 43.4997L162.853 42.965L162.875 41.7327L160.874 41.6966ZM161.483 7.93268L163.484 7.96871L163.484 7.9507V7.93268H161.483ZM168.327 3.36999L166.498 4.18267L166.534 4.26412L166.578 4.34176L168.327 3.36999ZM168.783 7.93268L166.791 7.74297L166.783 7.83182L166.782 7.92108L168.783 7.93268ZM168.631 34.2442L166.63 34.2326V34.2442H168.631ZM170.152 69.0728L168.156 69.2143L168.158 69.2503L168.162 69.2859L170.152 69.0728ZM170.912 77.2857L168.917 77.4391L168.92 77.4818L168.925 77.524L170.912 77.2857ZM171.673 84.586L169.679 84.7593L169.681 84.7787L171.673 84.586ZM172.89 96.6011L170.902 96.8348L170.91 96.9026L170.923 96.9699L172.89 96.6011ZM174.258 101.012L176.2 101.497L176.371 100.813L176.075 100.173L174.258 101.012ZM169.759 102.852C168.907 103.022 168.406 102.874 168.052 102.631C167.645 102.352 167.148 101.75 166.721 100.511L162.937 101.816C163.524 103.518 164.421 104.994 165.788 105.932C167.209 106.906 168.862 107.113 170.544 106.776L169.759 102.852ZM166.727 100.531C165.811 97.7808 165.257 93.5625 165.157 87.7454L161.155 87.8143C161.257 93.759 161.819 98.4632 162.93 101.797L166.727 100.531ZM165.156 87.7328C164.953 79.0967 164.648 71.8643 164.24 66.043L160.247 66.3232C160.65 72.0608 160.953 79.2262 161.155 87.8269L165.156 87.7328ZM164.242 66.0796C163.934 60.1259 163.316 54.7571 162.382 49.9815L158.454 50.75C159.345 55.3027 159.944 60.4787 160.245 66.2866L164.242 66.0796ZM159.562 48.5569C150.165 53.0029 140.871 57.0943 131.68 60.8311L133.187 64.5389C142.45 60.7727 151.812 56.6511 161.274 52.1746L159.562 48.5569ZM131.69 60.8269C127.129 62.6516 123.714 64.0048 121.442 64.8883C120.304 65.331 119.464 65.6516 118.912 65.8537C118.632 65.9564 118.449 66.0202 118.346 66.0536C118.285 66.0732 118.296 66.0676 118.344 66.0564C118.348 66.0556 118.475 66.0238 118.648 66.014C118.703 66.011 118.983 65.9926 119.324 66.0948C119.504 66.1489 119.85 66.2798 120.169 66.6029C120.539 66.9772 120.747 67.4821 120.747 68.0082H116.744C116.744 68.5359 116.952 69.0422 117.324 69.4174C117.644 69.7418 117.992 69.8737 118.174 69.9283C118.519 70.0318 118.806 70.0138 118.87 70.0104C119.061 69.9998 119.215 69.9631 119.254 69.9541C119.374 69.9261 119.492 69.8893 119.573 69.8631C119.755 69.8044 120 69.7178 120.29 69.6113C120.879 69.3952 121.75 69.0632 122.893 68.6185C125.184 67.7278 128.613 66.3686 133.177 64.5431L131.69 60.8269ZM116.745 68.027L117.049 100.422L121.051 100.384L120.747 67.9894L116.745 68.027ZM117.049 100.403C117.049 100.732 116.965 100.835 116.913 100.89C116.822 100.986 116.554 101.189 115.878 101.339L116.746 105.247C117.895 104.991 118.996 104.51 119.818 103.643C120.678 102.735 121.051 101.595 121.051 100.403H117.049ZM115.904 101.334C115.174 101.486 114.818 101.334 114.561 101.117C114.208 100.82 113.745 100.134 113.387 98.7013L109.504 99.6719C109.957 101.484 110.71 103.105 111.98 104.176C113.345 105.328 115.017 105.607 116.72 105.252L115.904 101.334ZM113.403 98.7713C112.73 95.5969 112.227 90.5139 111.924 83.4357L107.925 83.607C108.23 90.7238 108.741 96.0844 109.488 99.6018L113.403 98.7713ZM111.925 83.4579C111.722 77.0695 111.416 72.4492 110.99 69.681L107.034 70.2897C107.419 72.7938 107.721 77.1976 107.924 83.5848L111.925 83.4579ZM108.117 68.1955C105.428 69.5397 103.354 70.041 101.812 69.9637L101.612 73.9613C104.125 74.0868 106.917 73.2699 109.907 71.7752L108.117 68.1955ZM103.501 71.0676C103.455 70.9741 103.335 70.6279 103.242 69.8587C103.154 69.131 103.104 68.1663 103.104 66.9435H99.1019C99.1019 68.2557 99.154 69.3948 99.2686 70.3402C99.3781 71.2439 99.5628 72.1398 99.9216 72.8574L103.501 71.0676ZM101.806 68.8172C102.609 68.5161 103.566 68.1637 104.677 67.7596L103.309 63.9982C102.19 64.4052 101.22 64.7627 100.401 65.0698L101.806 68.8172ZM104.626 67.7774C105.939 67.3396 107.156 66.7626 107.993 65.9251L105.163 63.0951C104.987 63.2714 104.48 63.6072 103.36 63.9804L104.626 67.7774ZM107.993 65.9251C109.079 64.8395 109.492 63.4065 109.492 61.9246H105.49C105.49 62.6732 105.294 62.964 105.163 63.0951L107.993 65.9251ZM109.492 61.9246C109.492 56.7537 108.977 48.8669 107.962 38.3112L103.978 38.6943C104.991 49.2285 105.49 56.956 105.49 61.9246H109.492ZM107.958 38.2702C106.847 28.7794 106.298 21.006 106.298 14.9288H102.296C102.296 21.2215 102.862 29.1642 103.982 38.7353L107.958 38.2702ZM106.298 14.9722L106.45 7.97611L102.449 7.88926L102.296 14.8854L106.298 14.9722ZM106.289 8.72095C106.394 8.4742 106.479 8.34333 106.523 8.28669C106.566 8.23186 106.536 8.2901 106.409 8.35374L104.619 4.77402C103.58 5.29333 102.98 6.27931 102.61 7.14442L106.289 8.72095ZM106.257 8.42198C106.442 8.34793 106.822 8.26088 107.491 8.26088V4.25852C106.537 4.25852 105.6 4.37418 104.77 4.70578L106.257 8.42198ZM107.491 8.26088C107.82 8.26088 108.05 8.28809 108.2 8.32051C108.352 8.35313 108.38 8.38195 108.343 8.35814C108.293 8.32552 108.203 8.24647 108.136 8.1172C108.073 7.99492 108.075 7.91387 108.075 7.93268H112.078C112.078 6.76619 111.574 5.68176 110.517 4.99775C109.61 4.41081 108.504 4.25852 107.491 4.25852V8.26088ZM108.089 8.16422L114.324 61.6998L118.3 61.2368L112.064 7.70115L108.089 8.16422ZM116.798 63.4097C119.825 62.6528 124.684 60.7597 131.272 57.8206L129.641 54.1656C123.047 57.1073 118.477 58.8644 115.827 59.527L116.798 63.4097ZM131.272 57.8206C137.89 54.8676 148.052 50.0916 161.743 43.4997L160.006 39.8936C146.321 46.4829 136.204 51.2377 129.641 54.1656L131.272 57.8206ZM162.875 41.7327L163.484 7.96871L159.482 7.89666L158.874 41.6606L162.875 41.7327ZM163.484 7.93268C163.484 6.14523 163.827 5.16865 164.191 4.67816C164.474 4.29874 164.918 4.00236 165.893 4.00236V0C163.928 0 162.168 0.692206 160.98 2.28995C159.874 3.77663 159.482 5.7658 159.482 7.93268H163.484ZM165.893 4.00236C166.261 4.00236 166.405 4.072 166.433 4.08761C166.446 4.09462 166.449 4.09802 166.451 4.10062C166.454 4.10442 166.473 4.12604 166.498 4.18267L170.156 2.55731C169.791 1.73782 169.205 1.05422 168.395 0.599155C167.612 0.158494 166.743 0 165.893 0V4.00236ZM166.578 4.34176C166.769 4.68577 166.988 5.67055 166.791 7.74297L170.775 8.1224C170.984 5.93631 170.899 3.87929 170.076 2.39821L166.578 4.34176ZM166.782 7.92108L166.63 34.2326L170.632 34.2558L170.784 7.94429L166.782 7.92108ZM166.63 34.2442C166.63 43.2335 167.14 54.8952 168.156 69.2143L172.148 68.9313C171.136 54.6575 170.632 43.1001 170.632 34.2442H166.63ZM168.162 69.2859C168.464 72.1066 168.716 74.8244 168.917 77.4391L172.908 77.1322C172.703 74.4746 172.448 71.717 172.142 68.8597L168.162 69.2859ZM168.925 77.524C169.227 80.0393 169.478 82.4509 169.679 84.7593L173.667 84.4127C173.462 82.0571 173.206 79.6018 172.899 77.0473L168.925 77.524ZM169.681 84.7787C170.289 91.0588 170.696 95.0864 170.902 96.8348L174.877 96.3673C174.677 94.6683 174.274 90.686 173.665 84.3933L169.681 84.7787ZM170.923 96.9699C171.253 98.7327 171.755 100.363 172.441 101.85L176.075 100.173C175.545 99.0235 175.134 97.7141 174.857 96.2322L170.923 96.9699ZM172.317 100.526C172.146 101.21 171.858 101.676 171.492 102.015C171.117 102.361 170.558 102.669 169.708 102.863L170.595 106.765C171.976 106.451 173.217 105.872 174.211 104.952C175.215 104.022 175.864 102.841 176.2 101.497L172.317 100.526ZM210.616 99.7949L209.688 101.568L209.7 101.574L210.616 99.7949ZM202.556 36.9818L203.638 38.6652L203.652 38.6562L203.666 38.6468L202.556 36.9818ZM246.814 38.3507L246.007 40.1821L246.019 40.1877L246.033 40.1933L246.814 38.3507ZM266.89 54.168L265.243 55.3059L265.255 55.3221L266.89 54.168ZM267.498 93.103L266.151 91.6221L266.135 91.6377L267.498 93.103ZM251.376 102.076L250.798 100.16L250.79 100.163L251.376 102.076ZM255.939 92.4946L255.141 90.6594L255.131 90.6638L255.939 92.4946ZM252.137 49.4532L251.034 51.1238L251.048 51.1318L252.137 49.4532ZM200.578 46.4114L198.932 45.2743L198.926 45.2827L200.578 46.4114ZM200.578 80.1754L198.823 81.1385L198.835 81.1591L198.847 81.1794L200.578 80.1754ZM212.746 92.4946L211.705 94.2047L211.719 94.2123L211.731 94.2195L212.746 92.4946ZM233.278 102.965C225.143 102.965 217.909 101.301 211.533 98.0159L209.7 101.574C216.708 105.184 224.581 106.967 233.278 106.967V102.965ZM211.543 98.0217C205.275 94.7428 200.38 90.1324 196.822 84.1687L193.385 86.2199C197.329 92.829 202.776 97.9523 209.688 101.568L211.543 98.0217ZM196.822 84.1687C193.277 78.229 191.477 71.3423 191.477 63.4455H187.475C187.475 71.9743 189.426 79.5868 193.385 86.2199L196.822 84.1687ZM191.477 63.4455C191.477 58.1437 192.535 53.3215 194.627 48.9479L191.016 47.2209C188.647 52.1754 187.475 57.594 187.475 63.4455H191.477ZM194.627 48.9479C196.7 44.6114 199.698 41.1975 203.638 38.6652L201.473 35.2984C196.896 38.2414 193.404 42.2293 191.016 47.2209L194.627 48.9479ZM203.666 38.6468C207.555 36.0547 212.175 34.7245 217.613 34.7245V30.7222C211.491 30.7222 206.074 32.231 201.445 35.3167L203.666 38.6468ZM217.613 34.7245C228.333 34.7245 237.784 36.5604 246.007 40.1821L247.62 36.5192C238.809 32.6377 228.791 30.7222 217.613 30.7222V34.7245ZM246.033 40.1933C254.344 43.7132 260.718 48.759 265.243 55.3059L268.537 53.0301C263.53 45.7875 256.52 40.2884 247.594 36.508L246.033 40.1933ZM265.255 55.3221C269.865 61.8553 272.189 69.4052 272.189 78.0461H276.191C276.191 68.6392 273.646 60.2702 268.525 53.0139L265.255 55.3221ZM272.189 78.0461C272.189 83.4595 270.2 87.9421 266.151 91.6221L268.845 94.5837C273.718 90.1523 276.191 84.5972 276.191 78.0461H272.189ZM266.135 91.6377C262.025 95.4614 256.93 98.3115 250.798 100.16L251.955 103.992C258.599 101.988 264.252 98.8562 268.861 94.5683L266.135 91.6377ZM250.79 100.163C244.669 102.039 238.833 102.965 233.278 102.965V106.967C239.281 106.967 245.511 105.966 251.963 103.99L250.79 100.163ZM230.388 99.0585C240.714 99.0585 249.525 97.5112 256.748 94.3255L255.131 90.6638C248.563 93.5617 240.34 95.0562 230.388 95.0562V99.0585ZM256.738 94.3299C260.496 92.6954 263.45 90.4558 265.457 87.5475C267.47 84.6296 268.435 81.1766 268.435 77.2857H264.432C264.432 80.4921 263.648 83.1227 262.163 85.2746C260.672 87.4359 258.379 89.2521 255.141 90.6594L256.738 94.3299ZM268.435 77.2857C268.435 64.3094 263.384 54.3659 253.226 47.7744L251.048 51.1318C259.952 56.9106 264.432 65.5221 264.432 77.2857H268.435ZM253.238 47.7826C243.296 41.2252 230.716 38.0225 215.635 38.0225V42.0248C230.162 42.0248 241.915 45.1086 251.034 51.1238L253.238 47.7826ZM215.635 38.0225C208.147 38.0225 202.376 40.2874 198.932 45.2743L202.225 47.5485C204.663 44.0184 208.929 42.0248 215.635 42.0248V38.0225ZM198.926 45.2827C195.781 49.8873 194.319 56.0097 194.319 63.4455H198.321C198.321 56.4834 199.698 51.2499 202.231 47.5401L198.926 45.2827ZM194.319 63.4455C194.319 69.7594 195.821 75.6679 198.823 81.1385L202.332 79.2122C199.658 74.3407 198.321 69.096 198.321 63.4455H194.319ZM198.847 81.1794C201.961 86.5481 206.258 90.8935 211.705 94.2047L213.784 90.7846C208.889 87.8093 205.077 83.9418 202.31 79.1714L198.847 81.1794ZM211.731 94.2195C217.238 97.4598 223.476 99.0585 230.388 99.0585V95.0562C224.118 95.0562 218.593 93.6131 213.76 90.7698L211.731 94.2195ZM302.665 100.251L301.38 101.785L301.4 101.802L302.665 100.251ZM297.037 83.2172L295.04 83.0923L295.036 83.1547V83.2172H297.037ZM299.167 49.149L301.164 49.2739L301.168 49.2115V49.149H299.167ZM300.688 11.5828L301.836 13.2222L301.888 13.1856L301.938 13.1456L300.688 11.5828ZM307.38 10.3661L307.438 8.36574L307.41 8.36494H307.38V10.3661ZM317.722 10.6703L317.832 8.67212L317.806 8.67072L317.78 8.66992L317.722 10.6703ZM361.98 14.0163L360.565 15.4313L360.587 15.4541L360.611 15.4761L361.98 14.0163ZM362.892 21.7729L362.176 23.6418L362.29 23.685L362.408 23.7142L362.892 21.7729ZM355.744 19.0352L356.461 17.1663L356.09 17.0247L355.694 17.0347L355.744 19.0352ZM308.14 20.252V22.2531H308.166L308.192 22.2525L308.14 20.252ZM307.075 20.0999L308.49 18.6848L305.286 20.9948L307.075 20.0999ZM307.684 49.149H305.683V51.0239L307.554 51.146L307.684 49.149ZM346.01 48.5407L346.169 50.5357L346.201 50.5333L346.233 50.5297L346.01 48.5407ZM350.117 48.2365L350.229 50.2347L350.277 50.2319L350.327 50.2267L350.117 48.2365ZM355.288 52.0387L353.299 52.2597L353.303 52.2845L353.305 52.3091L355.288 52.0387ZM345.098 56.4493L344.9 54.4582L344.896 54.4584L345.098 56.4493ZM316.961 58.1223V60.1235H316.995L317.031 60.1223L316.961 58.1223ZM307.075 58.4265L306.921 56.4311L305.681 56.5268L305.218 57.6833L307.075 58.4265ZM305.25 73.0271H303.249V73.0442V73.061L305.25 73.0271ZM305.402 82.0004H307.404V81.9834V81.9666L305.402 82.0004ZM305.402 91.8863H303.401V92.8388L304.142 93.4394L305.402 91.8863ZM333.539 94.3197L333.313 92.3313L333.309 92.3319L333.539 94.3197ZM341.448 93.4072L341.212 91.42L341.2 91.4214L341.448 93.4072ZM365.478 92.6467L364.505 94.3962L364.617 94.4576L364.735 94.5048L365.478 92.6467ZM321.068 102.965C312.821 102.965 307.252 101.41 303.93 98.7005L301.4 101.802C305.785 105.379 312.483 106.967 321.068 106.967V102.965ZM303.95 98.7173C300.884 96.1482 299.039 91.2271 299.039 83.2172H295.036C295.036 91.6329 296.943 98.0679 301.38 101.785L303.95 98.7173ZM299.035 83.342L301.164 49.2739L297.17 49.0242L295.04 83.0923L299.035 83.342ZM301.168 49.149V16.4497H297.166V49.149H301.168ZM301.168 16.4497C301.168 15.2954 301.286 14.4767 301.458 13.9288C301.628 13.3845 301.804 13.2436 301.836 13.2222L299.541 9.94347C298.556 10.6317 297.974 11.6571 297.638 12.7349C297.302 13.8092 297.166 15.0691 297.166 16.4497H301.168ZM301.938 13.1456C302.058 13.0489 302.481 12.821 303.479 12.6393C304.432 12.466 305.721 12.3673 307.38 12.3673V8.36494C305.591 8.36494 304.042 8.4692 302.763 8.70134C301.532 8.92527 300.331 9.3055 299.437 10.0201L301.938 13.1456ZM307.322 12.3665L317.664 12.6707L317.78 8.66992L307.438 8.36574L307.322 12.3665ZM317.612 12.6685C330.625 13.3801 343.337 13.7361 355.744 13.7361V9.73375C343.413 9.73375 330.775 9.37994 317.832 8.67212L317.612 12.6685ZM355.744 13.7361C357.977 13.7361 359.5 14.3671 360.565 15.4313L363.395 12.6012C361.418 10.6237 358.784 9.73375 355.744 9.73375V13.7361ZM360.611 15.4761C361.756 16.5488 362.412 18.0575 362.412 20.252H366.414C366.414 17.1739 365.45 14.5256 363.349 12.5564L360.611 15.4761ZM362.412 20.252C362.412 20.3056 362.404 20.2904 362.426 20.2338C362.436 20.2057 362.452 20.1731 362.474 20.1393C362.496 20.1055 362.518 20.0767 362.542 20.0536L365.372 22.8837C366.118 22.1379 366.414 21.1877 366.414 20.252H362.412ZM362.542 20.0536C362.59 20.0054 362.712 19.9058 362.912 19.8487C363.117 19.7907 363.287 19.8085 363.379 19.8315L362.408 23.7142C363.519 23.9922 364.589 23.6674 365.372 22.8837L362.542 20.0536ZM363.609 19.904L356.461 17.1663L355.028 20.9041L362.176 23.6418L363.609 19.904ZM355.694 17.0347L308.09 18.2514L308.192 22.2525L355.796 21.0358L355.694 17.0347ZM308.14 18.2508C307.876 18.2508 307.742 18.2388 307.702 18.2328C307.68 18.2298 307.734 18.2354 307.832 18.268C307.884 18.285 307.97 18.3172 308.074 18.3735C308.176 18.4283 308.33 18.5251 308.49 18.6848L305.661 21.5149C306.007 21.8609 306.389 22.0058 306.567 22.0648C306.777 22.1355 306.979 22.1727 307.135 22.1949C307.448 22.2397 307.796 22.2531 308.14 22.2531V18.2508ZM305.286 20.9948C305.615 21.6532 305.683 22.0462 305.683 22.2291H309.685C309.685 21.1953 309.347 20.1687 308.866 19.2049L305.286 20.9948ZM305.683 22.2291V49.149H309.685V22.2291H305.683ZM307.554 51.146C312.258 51.4528 316.813 51.6065 321.22 51.6065V47.6041C316.907 47.6041 312.439 47.4536 307.814 47.1521L307.554 51.146ZM321.22 51.6065C328.784 51.6065 337.101 51.2487 346.169 50.5357L345.854 46.5457C336.871 47.2521 328.662 47.6041 321.22 47.6041V51.6065ZM346.233 50.5297C347.087 50.4346 348.412 50.3355 350.229 50.2347L350.007 46.2383C348.172 46.3402 346.759 46.444 345.79 46.5517L346.233 50.5297ZM350.327 50.2267C351.268 50.1278 351.932 50.0856 352.36 50.0856C352.462 50.0856 352.542 50.088 352.6 50.0916C352.66 50.0952 352.684 50.099 352.68 50.0984C352.678 50.098 352.662 50.0956 352.636 50.0894C352.612 50.0832 352.568 50.0716 352.51 50.0506C352.424 50.0193 352.16 49.9155 351.896 49.6515L354.726 46.8215C354.411 46.5067 354.069 46.3586 353.879 46.2893C353.667 46.2125 353.469 46.1711 353.313 46.1465C353.005 46.097 352.672 46.0832 352.36 46.0832C351.724 46.0832 350.893 46.1425 349.907 46.2463L350.327 50.2267ZM351.896 49.6515C352.436 50.1916 352.772 50.6201 352.965 50.9391L356.397 48.8799C355.978 48.1849 355.402 47.4981 354.726 46.8215L351.896 49.6515ZM352.965 50.9391C353.061 51.1006 353.215 51.4912 353.299 52.2597L357.277 51.8178C357.159 50.7612 356.907 49.7322 356.397 48.8799L352.965 50.9391ZM353.305 52.3091C353.307 52.3183 353.303 52.2931 353.315 52.2569C353.325 52.2241 353.331 52.2337 353.287 52.2859C353.179 52.4146 352.874 52.6741 352.174 52.9779C350.767 53.5865 348.396 54.1084 344.9 54.4582L345.298 58.4405C348.898 58.0805 351.774 57.5124 353.763 56.6509C354.76 56.2196 355.692 55.6489 356.359 54.8524C357.077 53.9923 357.429 52.9269 357.271 51.7684L353.305 52.3091ZM344.896 54.4584C337.964 55.1616 328.634 55.7175 316.893 56.1223L317.031 60.1223C328.81 59.7161 338.238 59.1567 345.298 58.4405L344.896 54.4584ZM316.961 56.1212C312.979 56.1212 309.627 56.223 306.921 56.4311L307.23 60.4219C309.795 60.2244 313.037 60.1235 316.961 60.1235V56.1212ZM305.218 57.6833C303.852 61.0991 303.249 66.2902 303.249 73.0271H307.252C307.252 66.3802 307.866 61.8375 308.935 59.1698L305.218 57.6833ZM303.249 73.061L303.401 82.0343L307.404 81.9666L307.252 72.9933L303.249 73.061ZM303.401 82.0004V91.8863H307.404V82.0004H303.401ZM304.142 93.4394C305.995 94.9455 308.056 95.9549 310.313 96.43L311.138 92.5135C309.543 92.1777 308.056 91.4632 306.665 90.3332L304.142 93.4394ZM310.313 96.43C312.459 96.8818 315.783 97.0814 320.155 97.0814V93.079C315.809 93.079 312.845 92.8729 311.138 92.5135L310.313 96.43ZM320.155 97.0814C324.792 97.0814 329.331 96.8238 333.771 96.3075L333.309 92.3319C329.028 92.8296 324.644 93.079 320.155 93.079V97.0814ZM333.765 96.3081C338.22 95.8018 340.871 95.496 341.696 95.3929L341.2 91.4214C340.403 91.5211 337.782 91.8236 333.313 92.3313L333.765 96.3081ZM341.684 95.3944C350.187 94.3822 356.427 93.8875 360.459 93.8875V89.8851C356.178 89.8851 349.743 90.4044 341.212 91.42L341.684 95.3944ZM360.459 93.8875C361.616 93.8875 362.534 93.9483 363.239 94.055C363.967 94.1654 364.347 94.3079 364.505 94.3962L366.45 90.8973C365.696 90.4784 364.784 90.2409 363.839 90.0978C362.87 89.9511 361.738 89.8851 360.459 89.8851V93.8875ZM364.735 94.5048C364.842 94.5477 364.9 94.5853 364.926 94.6057C364.94 94.6157 364.946 94.6227 364.95 94.6259C364.952 94.6291 364.954 94.6307 364.954 94.6313C364.954 94.6319 364.956 94.6347 364.96 94.6409C364.962 94.6473 364.966 94.6597 364.972 94.6803C364.984 94.7216 364.998 94.8002 364.998 94.9281H369C369 94.0632 368.8 93.1865 368.284 92.4112C367.765 91.6329 367.029 91.112 366.22 90.7886L364.735 94.5048ZM364.998 94.9281C364.998 95.8018 364.599 96.7229 363.263 97.7101C361.872 98.7379 359.616 99.7039 356.331 100.513C349.779 102.127 339.785 102.965 326.239 102.965V106.967C339.867 106.967 350.253 106.132 357.287 104.4C360.795 103.536 363.635 102.411 365.64 100.929C367.701 99.4069 369 97.4003 369 94.9281H364.998ZM326.239 102.965H321.068V106.967H326.239V102.965Z" fill="black"/>
</svg>
