<svg width="340" height="130" viewBox="0 0 340 130" fill="none" xmlns="http://www.w3.org/2000/svg">
<path d="M83.8163 124.712L81.597 121.384L81.1552 121.678L80.8055 122.078L83.8163 124.712ZM57.9713 112.854L55.3749 115.898L55.391 115.911L55.4072 115.924L57.9713 112.854ZM30.4539 86.5528L33.4003 83.8463L23.9861 73.5983L26.5199 87.281L30.4539 86.5528ZM33.3425 100.388L29.4341 101.242L29.4427 101.282L29.4521 101.322L33.3425 100.388ZM34.8628 107.685L30.9212 108.371L30.9356 108.453L30.9532 108.535L34.8628 107.685ZM32.4303 118.479L31.3313 114.632L29.4125 115.18L28.6962 117.043L32.4303 118.479ZM28.3255 108.597L24.4623 109.637L24.4685 109.659L24.475 109.683L28.3255 108.597ZM22.2443 81.2318L18.3034 81.9199L18.3072 81.9419L18.3112 81.9639L22.2443 81.2318ZM20.42 46.417L17.9807 43.2458L16.9141 44.0662L16.5602 45.3644L20.42 46.417ZM27.5654 49.6096L23.6628 50.4908L23.666 50.5048L23.6692 50.5188L27.5654 49.6096ZM29.5417 64.0524L33.5275 63.7064L33.5255 63.6844L29.5417 64.0524ZM29.8458 67.5491L25.86 67.8952L26.1945 71.7419L30.0506 71.5439L29.8458 67.5491ZM45.9609 64.9646L45.0992 61.0579L45.087 61.0599L45.9609 64.9646ZM64.3565 58.7314L66.1186 62.3241L66.1322 62.3161L66.1456 62.3101L64.3565 58.7314ZM68.1572 42.3122L65.4927 45.2966L65.5487 45.3466L65.6065 45.3944L68.1572 42.3122ZM54.9307 35.927L53.8054 39.7663L53.823 39.7713L54.9307 35.927ZM14.7949 36.231L16.7563 39.7179L16.7971 39.6951L16.8375 39.6711L14.7949 36.231ZM9.92993 48.0893V52.0901H13.9307V48.0893H9.92993ZM12.9705 27.5653L11.7627 23.7512L11.7441 23.7572L12.9705 27.5653ZM74.2384 36.6871L71.5111 39.6141L71.5291 39.6309L71.5473 39.6475L74.2384 36.6871ZM75.3026 62.2281L72.9444 58.9955L72.9232 59.0115L72.9022 59.0275L75.3026 62.2281ZM44.1366 73.3262L44.9975 77.233L45.0161 77.229L44.1366 73.3262ZM32.4303 76.2148L31.1651 72.4201L25.9334 74.1624L29.2149 78.5953L32.4303 76.2148ZM54.9307 100.844L52.3996 103.942L52.4208 103.96L54.9307 100.844ZM77.7351 116.807L75.6703 120.233L75.6829 120.241L75.6955 120.249L77.7351 116.807ZM80.8055 122.078C80.8321 122.048 80.8709 122.01 80.9199 121.976C80.9689 121.942 81.0115 121.92 81.0381 121.91C81.0907 121.89 81.0281 121.928 80.7757 121.928V129.929C82.9673 129.929 85.1913 129.217 86.8273 127.347L80.8055 122.078ZM80.7757 121.928C79.4614 121.928 77.1182 121.268 73.4919 119.189C69.9724 117.171 65.6621 114.064 60.5354 109.783L55.4072 115.924C60.7196 120.361 65.4299 123.79 69.5119 126.13C73.4871 128.409 77.3264 129.929 80.7757 129.929V121.928ZM60.5676 109.809C50.3354 101.082 41.2828 92.4279 33.4003 83.8463L27.5075 89.2593C35.6389 98.1111 44.9311 106.991 55.3749 115.898L60.5676 109.809ZM26.5199 87.281C27.0397 90.0875 28.015 94.7544 29.4341 101.242L37.2508 99.5333C35.832 93.0461 34.8816 88.4912 34.3879 85.8247L26.5199 87.281ZM29.4521 101.322C30.0424 103.78 30.5315 106.131 30.9212 108.371L38.8043 106.999C38.3831 104.576 37.8588 102.062 37.2328 99.4533L29.4521 101.322ZM30.9532 108.535C31.4397 110.772 31.6221 112.268 31.6221 113.158H39.6237C39.6237 111.412 39.2992 109.259 38.7723 106.835L30.9532 108.535ZM31.6221 113.158C31.6221 114.192 31.4281 114.578 31.3941 114.634C31.3855 114.648 31.4001 114.624 31.4347 114.598C31.4653 114.574 31.4487 114.598 31.3313 114.632L33.5293 122.326C35.4945 121.764 37.1622 120.573 38.2554 118.751C39.2856 117.035 39.6237 115.062 39.6237 113.158H31.6221ZM28.6962 117.043C28.7006 117.031 29.2847 115.318 31.3103 114.856C33.4461 114.368 34.7403 115.796 34.7912 115.848C35.1318 116.209 35.083 116.339 34.7187 115.462C34.134 114.054 33.2887 111.456 32.176 107.511L24.475 109.683C25.5922 113.644 26.5458 116.645 27.3293 118.531C27.6492 119.301 28.1767 120.503 28.9862 121.356C29.2713 121.656 30.773 123.186 33.0894 122.658C35.2957 122.154 36.0334 120.255 36.1644 119.915L28.6962 117.043ZM32.1886 107.557C30.094 99.7774 28.0891 90.7616 26.1775 80.4996L18.3112 81.9639C20.2511 92.3779 22.3001 101.606 24.4623 109.637L32.1886 107.557ZM26.1853 80.5436C24.3827 70.2276 23.5086 61.76 23.5086 55.0827H15.507C15.507 62.3921 16.4572 71.3579 18.3034 81.9199L26.1853 80.5436ZM23.5086 55.0827C23.5086 51.7228 23.801 49.2252 24.2797 47.4696L16.5602 45.3644C15.8227 48.0683 15.507 51.3478 15.507 55.0827H23.5086ZM22.8592 49.588C23.3555 49.2064 23.6996 49.0099 23.8998 48.9189C24.1063 48.8251 24.0399 48.8975 23.7646 48.8975V40.8959C21.4952 40.8959 19.4932 42.0824 17.9807 43.2458L22.8592 49.588ZM23.7646 48.8975C23.6246 48.8975 23.4203 48.8619 23.2159 48.7579C23.0227 48.6598 22.9489 48.5618 22.9689 48.5864C22.9965 48.6206 23.1009 48.7651 23.2393 49.0949C23.3763 49.4216 23.5244 49.8773 23.6628 50.4908L31.4679 48.7285C31.05 46.8781 30.3769 45.0259 29.1973 43.5635C27.8962 41.95 26.0257 40.8959 23.7646 40.8959V48.8975ZM23.6692 50.5188C24.3125 53.2757 24.9522 57.8592 25.558 64.4205L33.5255 63.6844C32.915 57.0693 32.2371 52.0247 31.4615 48.7005L23.6692 50.5188ZM25.556 64.3985L25.86 67.8952L33.8316 67.203L33.5275 63.7064L25.556 64.3985ZM30.0506 71.5439C34.3361 71.3258 39.9626 70.4077 46.8349 68.8694L45.087 61.0599C38.3781 62.5621 33.2611 63.3683 29.641 63.5543L30.0506 71.5439ZM46.8227 68.8714C53.9723 67.2951 60.4147 65.1207 66.1186 62.3241L62.5945 55.1395C57.555 57.6112 51.7336 59.5936 45.0992 61.0579L46.8227 68.8714ZM66.1456 62.3101C72.0528 59.3555 76.5669 55.0773 76.5669 49.0015H68.5653C68.5653 50.4258 67.6063 52.6334 62.5673 55.1529L66.1456 62.3101ZM76.5669 49.0015C76.5669 45.0702 73.8197 41.8053 70.7079 39.23L65.6065 45.3944C68.3731 47.6841 68.5653 48.8789 68.5653 49.0015H76.5669ZM70.8217 39.3278C67.3391 36.2182 62.2717 33.8786 56.0383 32.0826L53.823 39.7713C59.5494 41.4213 63.2997 43.3386 65.4927 45.2966L70.8217 39.3278ZM56.0559 32.0876C49.6972 30.2239 42.0448 29.3417 33.1904 29.3417V37.3432C41.5663 37.3432 48.4072 38.184 53.8054 39.7663L56.0559 32.0876ZM33.1904 29.3417H28.3255V37.3432H33.1904V29.3417ZM28.3255 29.3417C22.1813 29.3417 16.8587 30.3527 12.7523 32.791L16.8375 39.6711C19.2175 38.2578 22.9154 37.3432 28.3255 37.3432V29.3417ZM12.8335 32.744C7.66929 35.6489 5.92915 41.5277 5.92915 48.0893H13.9307C13.9307 42.4886 15.4338 40.4619 16.7563 39.7179L12.8335 32.744ZM9.92993 44.0886C9.98054 44.0886 10.0371 44.098 10.0834 44.1134C10.1262 44.1276 10.1208 44.134 10.066 44.0954C9.93873 44.0058 9.62967 43.7325 9.20779 43.0644L2.44247 47.3372C4.00118 49.8049 6.43765 52.0901 9.92993 52.0901V44.0886ZM9.20779 43.0644C8.239 41.5307 8.00155 40.4979 8.00155 39.8798H0C0 42.5049 0.97875 45.0195 2.44247 47.3372L9.20779 43.0644ZM8.00155 39.8798C8.00155 37.3805 8.58847 35.6635 9.47704 34.4437C10.3656 33.2241 11.8191 32.1392 14.197 31.3735L11.7441 23.7572C8.14218 24.917 5.11079 26.8476 3.00938 29.7328C0.908015 32.6175 0 36.0952 0 39.8798H8.00155ZM14.1784 31.3795C19.6772 29.6382 27.9114 28.6776 39.1196 28.6776V20.676C27.6248 20.676 18.4262 21.6412 11.7627 23.7512L14.1784 31.3795ZM39.1196 28.6776C44.6671 28.6776 50.5158 29.5705 56.6806 31.4007L58.9578 23.73C52.1495 21.7088 45.5318 20.676 39.1196 20.676V28.6776ZM56.6806 31.4007C62.6406 33.17 67.5515 35.9248 71.5111 39.6141L76.9659 33.7602C72.0062 29.1387 65.971 25.812 58.9578 23.73L56.6806 31.4007ZM71.5473 39.6475C75.1642 42.9355 76.9269 46.9245 76.9269 51.8901H84.9285C84.9285 44.6933 82.2318 38.5469 76.9295 33.7267L71.5473 39.6475ZM76.9269 51.8901C76.9269 54.6042 75.8019 56.9111 72.9444 58.9955L77.6609 65.4607C82.3036 62.072 84.9285 57.4868 84.9285 51.8901H76.9269ZM72.9022 59.0275C69.6715 61.4499 65.7932 63.3843 61.2091 64.7886L63.5511 72.4381C68.8998 70.8018 73.6363 68.4793 77.7031 65.4287L72.9022 59.0275ZM61.2091 64.7886C56.3693 66.2689 50.392 67.8152 43.257 69.4235L45.0161 77.229C52.2731 75.5947 58.4582 73.9984 63.5511 72.4381L61.2091 64.7886ZM43.2756 69.4195C37.3394 70.7277 33.2248 71.7319 31.1651 72.4201L33.6955 80.0095C35.2844 79.4814 38.9742 78.5613 44.9975 77.233L43.2756 69.4195ZM29.2149 78.5953C37.1426 89.3033 44.8653 97.787 52.3996 103.942L57.4618 97.745C50.6038 92.1439 43.3264 84.2084 35.6457 73.8343L29.2149 78.5953ZM52.4208 103.96C59.8572 109.949 67.6071 115.374 75.6703 120.233L79.7999 113.38C72.052 108.711 64.5989 103.494 57.4405 97.727L52.4208 103.96ZM75.6955 120.249C78.4264 121.868 80.2098 123 81.1592 123.69L85.8653 117.221C84.585 116.289 82.5168 114.99 79.7747 113.364L75.6955 120.249ZM81.1592 123.69C81.522 123.954 81.5904 124.068 81.5402 124C81.4798 123.916 81.1838 123.472 81.1838 122.736H89.1853C89.1853 119.935 87.1117 118.127 85.8653 117.221L81.1592 123.69ZM81.1838 122.736C81.1838 122.174 81.3802 121.734 81.553 121.486C81.6969 121.278 81.7777 121.264 81.597 121.384L86.0355 128.041C87.4262 127.115 89.1853 125.398 89.1853 122.736H81.1838ZM160.095 118.783L156.766 121.002L156.884 121.18L157.021 121.344L160.095 118.783ZM161.007 105.861L157.137 104.846L157.115 104.928L157.098 105.01L161.007 105.861ZM160.855 77.279L164.695 76.1548L163.853 73.2782H160.855V77.279ZM139.875 76.975L139.996 72.9762L139.957 72.9742H139.917L139.875 76.975ZM125.584 76.8229L125.627 72.8221H125.605H125.584V76.8229ZM105.06 76.8229V72.8221H100.849L101.064 77.027L105.06 76.8229ZM105.364 82.7521H109.365V82.65L109.36 82.548L105.364 82.7521ZM107.644 100.235L111.583 99.5313L111.57 99.4593L111.554 99.3853L107.644 100.235ZM109.013 108.901L105.05 109.447L105.06 109.527L105.074 109.605L109.013 108.901ZM109.773 118.023L112.602 120.851L113.774 119.679V118.023H109.773ZM100.347 110.269L96.4585 111.21L96.4621 111.226L100.347 110.269ZM98.5227 77.127L102.508 77.479L102.875 73.3202L98.7044 73.1302L98.5227 77.127ZM93.9618 76.0628L91.3273 79.0734L91.4407 79.1734L91.5614 79.2634L93.9618 76.0628ZM93.6578 70.5897L91.6728 67.117L91.5532 67.185L91.4386 67.2611L93.6578 70.5897ZM97.3065 69.6775L97.774 73.6503L101.441 73.2202L101.304 69.5295L97.3065 69.6775ZM97.1545 65.5727L93.1623 65.3127L93.1489 65.5167L93.1565 65.7208L97.1545 65.5727ZM97.6105 58.5794L101.603 58.8394L101.604 58.8274L97.6105 58.5794ZM170.889 105.404L174.878 105.711L174.879 105.701L170.889 105.404ZM169.673 115.286L172.807 117.773L173.466 116.943L173.627 115.894L169.673 115.286ZM160.247 71.3499L160.128 75.3486L164.693 75.4847L164.226 70.9418L160.247 71.3499ZM149.909 27.2613L146.277 28.94L146.283 28.9532L149.909 27.2613ZM111.141 21.4842L107.584 19.6532L107.573 19.6736L111.141 21.4842ZM103.844 69.6775H99.843V73.5623L103.725 73.6763L103.844 69.6775ZM162.679 115.694C162.384 115.694 162.34 115.654 162.453 115.694C162.595 115.744 162.893 115.892 163.168 116.223L157.021 121.344C158.621 123.264 160.918 123.696 162.679 123.696V115.694ZM163.424 116.565C163.535 116.731 163.548 116.827 163.533 116.765C163.518 116.701 163.487 116.523 163.487 116.199H155.486C155.486 117.717 155.748 119.475 156.766 121.002L163.424 116.565ZM163.487 116.199C163.487 114.426 163.911 111.336 164.916 106.711L157.098 105.01C156.076 109.711 155.486 113.512 155.486 116.199H163.487ZM164.877 106.875C166.033 102.46 166.68 98.5911 166.68 95.3705H158.678C158.678 97.623 158.211 100.748 157.137 104.846L164.877 106.875ZM166.68 95.3705C166.68 87.343 166.072 80.8597 164.695 76.1548L157.015 78.4032C158.07 82.0079 158.678 87.587 158.678 95.3705H166.68ZM160.855 73.2782H156.142V81.2798H160.855V73.2782ZM156.142 73.2782C152.044 73.2782 146.666 73.1782 139.996 72.9762L139.754 80.9737C146.462 81.1778 151.929 81.2798 156.142 81.2798V73.2782ZM139.917 72.9742L125.627 72.8221L125.541 80.8237L139.832 80.9757L139.917 72.9742ZM125.584 72.8221H105.06V80.8237H125.584V72.8221ZM101.064 77.027L101.368 82.9561L109.36 82.548L109.056 76.6189L101.064 77.027ZM101.363 82.7521C101.363 87.8091 102.183 93.9442 103.735 101.086L111.554 99.3853C110.066 92.54 109.365 87.0189 109.365 82.7521H101.363ZM103.706 100.94C104.203 103.722 104.651 106.559 105.05 109.447L112.976 108.355C112.564 105.364 112.099 102.424 111.583 99.5313L103.706 100.94ZM105.074 109.605C105.549 112.262 105.772 114.606 105.772 116.655H113.774C113.774 114.04 113.49 111.216 112.951 108.197L105.074 109.605ZM105.772 116.655V118.023H113.774V116.655H105.772ZM106.944 115.194C106.692 115.446 106.537 115.53 106.494 115.55C106.475 115.56 106.478 115.556 106.501 115.55C106.524 115.546 106.553 115.542 106.58 115.542V123.544C109.036 123.544 111.062 122.392 112.602 120.851L106.944 115.194ZM106.58 115.542C107.097 115.542 106.994 115.929 106.366 114.992C105.711 114.018 104.948 112.226 104.232 109.313L96.4621 111.226C97.2665 114.496 98.3031 117.341 99.7252 119.457C101.175 121.614 103.428 123.544 106.58 123.544V115.542ZM104.236 109.329C102.811 103.442 102.067 96.2247 102.067 87.617H94.0659C94.0659 96.6448 94.8422 104.53 96.4585 111.21L104.236 109.329ZM102.067 87.617C102.067 84.1844 102.215 80.8057 102.508 77.479L94.5376 76.7749C94.2229 80.3416 94.0659 83.9543 94.0659 87.617H102.067ZM98.7044 73.1302C97.7396 73.0862 97.063 72.9922 96.6194 72.8882C96.1369 72.7761 96.1503 72.7021 96.3623 72.8622L91.5614 79.2634C92.5844 80.0315 93.7632 80.4396 94.8012 80.6817C95.8776 80.9317 97.076 81.0657 98.3411 81.1238L98.7044 73.1302ZM96.5964 73.0522C96.6454 73.0942 96.6916 73.1462 96.7294 73.2022C96.7666 73.2562 96.7836 73.2962 96.7884 73.3082C96.7958 73.3282 96.7464 73.2082 96.7464 72.8702H88.7448C88.7448 75.0546 89.3938 77.381 91.3273 79.0734L96.5964 73.0522ZM96.7464 72.8702C96.7464 72.6501 96.7802 72.7201 96.6884 72.9502C96.5774 73.2262 96.3259 73.6203 95.877 73.9184L91.4386 67.2611C89.2181 68.7414 88.7448 71.1558 88.7448 72.8702H96.7464ZM95.6428 74.0624C95.558 74.1124 95.6518 74.0444 96.0725 73.9384C96.4659 73.8403 97.0228 73.7383 97.774 73.6503L96.839 65.7048C95.0478 65.9148 93.1329 66.2809 91.6728 67.117L95.6428 74.0624ZM101.304 69.5295L101.152 65.4247L93.1565 65.7208L93.3085 69.8256L101.304 69.5295ZM101.147 65.8328L101.603 58.8394L93.6184 58.3193L93.1623 65.3127L101.147 65.8328ZM101.604 58.8274C102.308 47.464 103.357 38.3339 104.728 31.3799L96.878 29.832C95.4113 37.2702 94.3325 46.7889 93.6174 58.3313L101.604 58.8274ZM104.728 31.3799C106.016 24.85 108.75 19.2723 112.922 14.557L106.928 9.2556C101.775 15.0809 98.4283 21.9697 96.878 29.832L104.728 31.3799ZM112.922 14.557C116.598 10.4014 122.333 8.00155 130.905 8.00155V0C120.828 0 112.577 2.87036 106.928 9.2556L112.922 14.557ZM130.905 8.00155C139.71 8.00155 146.824 12.5608 152.291 23.0319L159.384 19.3284C152.892 6.89354 143.384 0 130.905 0V8.00155ZM152.291 23.0319C158.046 34.054 161.975 46.3942 164.044 60.0897L171.956 58.8934C169.768 44.4128 165.589 31.2121 159.384 19.3284L152.291 23.0319ZM164.044 60.0897C166.154 74.0524 167.192 85.9527 167.192 95.8266H175.194C175.194 85.4286 174.103 73.1062 171.956 58.8934L164.044 60.0897ZM167.192 95.8266C167.192 99.4073 167.092 102.496 166.899 105.108L174.879 105.701C175.091 102.84 175.194 99.5433 175.194 95.8266H167.192ZM166.9 105.098C166.708 107.595 166.318 110.779 165.718 114.678L173.627 115.894C174.243 111.888 174.665 108.485 174.878 105.711L166.9 105.098ZM166.538 112.8C164.505 115.364 163.202 115.694 162.679 115.694V123.696C166.819 123.696 170.178 121.088 172.807 117.773L166.538 112.8ZM164.226 70.9418C162.279 51.9815 158.769 36.7861 153.534 25.5694L146.283 28.9532C150.982 39.0206 154.363 53.2175 156.267 71.7579L164.226 70.9418ZM153.54 25.5826C150.85 19.7624 147.358 15.1179 142.937 11.9299C138.474 8.71209 133.294 7.14538 127.56 7.14538V15.1469C131.759 15.1469 135.27 16.2662 138.257 18.42C141.285 20.6036 144.001 24.0169 146.277 28.94L153.54 25.5826ZM127.56 7.14538C123.218 7.14538 119.238 8.16479 115.775 10.345C112.322 12.5188 109.62 15.6976 107.584 19.6532L114.698 23.3151C116.21 20.3788 118.018 18.3886 120.038 17.1163C122.048 15.8505 124.504 15.1469 127.56 15.1469V7.14538ZM107.573 19.6736C103.891 26.9296 101.678 34.7201 100.924 43.0141L108.892 43.7387C109.557 36.4243 111.499 29.6202 114.709 23.2947L107.573 19.6736ZM100.924 43.0141C100.201 50.9635 99.843 59.8536 99.843 69.6775H107.845C107.845 60.0417 108.196 51.3978 108.892 43.7387L100.924 43.0141ZM103.725 73.6763L160.128 75.3486L160.365 67.3511L103.962 65.6788L103.725 73.6763ZM190.229 99.6273L186.488 101.044L186.496 101.07L186.506 101.094L190.229 99.6273ZM193.117 49.7617L196.662 51.618L196.67 51.6008L193.117 49.7617ZM210.601 29.0856L212.935 32.3351L212.943 32.3291L210.601 29.0856ZM251.649 42.3122L248.428 39.939L248.386 39.9954L248.346 40.053L251.649 42.3122ZM245.872 46.7211L242.293 48.5102L243.939 51.8029L247.358 50.4358L245.872 46.7211ZM245.872 40.1838L249.752 41.1542L249.81 40.9197L249.84 40.6801L245.872 40.1838ZM245.72 34.1026L242.005 35.5885L242.023 35.6337L242.043 35.6785L245.72 34.1026ZM228.084 29.2377L227.566 25.2705L227.56 25.2713L228.084 29.2377ZM212.121 37.2953L214.74 40.3204L214.756 40.3062L214.772 40.2918L212.121 37.2953ZM197.222 93.5462L193.454 94.8924L193.47 94.9324L193.484 94.9724L197.222 93.5462ZM238.118 109.661L236.758 105.899L236.732 105.909L238.118 109.661ZM252.105 101.756L254.561 104.914L254.583 104.896L254.603 104.88L252.105 101.756ZM256.058 103.124L259.974 102.308L259.936 102.126L259.88 101.948L256.058 103.124ZM236.598 118.327L237.824 122.136L237.852 122.126L237.882 122.116L236.598 118.327ZM219.571 117.215C213.359 117.215 208.268 115.522 204.082 112.278L199.179 118.599C204.926 123.056 211.795 125.216 219.571 125.216V117.215ZM204.082 112.278C199.763 108.927 196.362 104.28 193.952 98.1611L186.506 101.094C189.367 108.353 193.568 114.248 199.179 118.599L204.082 112.278ZM193.97 98.2111C191.637 92.0499 190.429 84.9425 190.429 76.8229H182.427C182.427 85.7306 183.754 93.8262 186.488 101.044L193.97 98.2111ZM190.429 76.8229C190.429 67.9492 192.499 59.5636 196.662 51.618L189.573 47.9053C184.816 56.9865 182.427 66.6429 182.427 76.8229H190.429ZM196.67 51.6008C200.869 43.4912 206.298 37.1026 212.935 32.3351L208.266 25.8362C200.511 31.4067 194.286 38.8021 189.565 47.9225L196.67 51.6008ZM212.943 32.3291C219.667 27.4727 226.414 25.1809 233.253 25.1809V17.1793C224.484 17.1793 216.128 20.1579 208.258 25.8422L212.943 32.3291ZM233.253 25.1809C239.302 25.1809 243.327 26.535 245.904 28.6696L251.009 22.5084C246.49 18.7644 240.381 17.1793 233.253 17.1793V25.1809ZM245.904 28.6696C248.702 30.989 249.776 33.3691 249.776 35.927H257.778C257.778 30.5793 255.304 26.0675 251.009 22.5084L245.904 28.6696ZM249.776 35.927C249.776 37.3805 249.354 38.6815 248.428 39.939L254.869 44.6855C256.78 42.0916 257.778 39.1358 257.778 35.927H249.776ZM248.346 40.053C247.548 41.2194 246.312 42.2362 244.385 43.0064L247.358 50.4358C250.499 49.1788 253.113 47.2566 254.949 44.5715L248.346 40.053ZM249.45 44.9319C249.542 45.116 249.518 45.1552 249.48 44.9189C249.446 44.7013 249.416 44.3498 249.416 43.8325H241.415C241.415 45.2936 241.557 47.0369 242.293 48.5102L249.45 44.9319ZM249.416 43.8325C249.416 42.9533 249.526 42.0628 249.752 41.1542L241.991 39.2134C241.609 40.7373 241.415 42.2792 241.415 43.8325H249.416ZM249.84 40.6801C250.045 39.0498 250.177 37.6679 250.177 36.6871H242.175C242.175 37.1254 242.103 38.0746 241.901 39.6875L249.84 40.6801ZM250.177 36.6871C250.177 35.2933 249.971 33.8638 249.396 32.5267L242.043 35.6785C242.077 35.7605 242.175 36.054 242.175 36.6871H250.177ZM249.434 32.6167C247.066 26.6944 240.909 24.7808 234.165 24.7808V32.7824C239.989 32.7824 241.535 34.4161 242.005 35.5885L249.434 32.6167ZM234.165 24.7808C232.219 24.7808 230.013 24.9515 227.566 25.2705L228.602 33.2049C230.819 32.9158 232.665 32.7824 234.165 32.7824V24.7808ZM227.56 25.2713C221.193 26.1123 215.16 29.2647 209.471 34.2987L214.772 40.2918C219.623 36.0012 224.232 33.7822 228.608 33.204L227.56 25.2713ZM209.503 34.2701C203.784 39.2198 199.157 45.3962 195.6 52.7278L202.797 56.2213C205.93 49.7689 209.919 44.4924 214.74 40.3204L209.503 34.2701ZM195.6 52.7278C192.007 60.1277 190.181 67.7672 190.181 75.6067H198.182C198.182 69.0554 199.701 62.6042 202.797 56.2213L195.6 52.7278ZM190.181 75.6067C190.181 82.33 191.267 88.7652 193.454 94.8924L200.989 92.1999C199.123 86.9749 198.182 81.4518 198.182 75.6067H190.181ZM193.484 94.9724C195.814 101.076 199.203 106.159 203.716 110.093L208.973 104.06C205.578 101.102 202.887 97.1669 200.959 92.1199L193.484 94.9724ZM203.716 110.093C208.43 114.204 214.09 116.247 220.483 116.247V108.245C215.93 108.245 212.163 106.843 208.973 104.06L203.716 110.093ZM220.483 116.247C227.864 116.247 234.253 115.354 239.505 113.414L236.732 105.909C232.659 107.413 227.29 108.245 220.483 108.245V116.247ZM239.479 113.424C244.688 111.54 249.714 108.683 254.561 104.914L249.648 98.5971C245.374 101.924 241.075 104.336 236.758 105.899L239.479 113.424ZM254.603 104.88C254.549 104.924 254.437 104.998 254.269 105.06C254.099 105.122 253.927 105.148 253.777 105.148V97.1469C252.197 97.1469 250.771 97.699 249.604 98.6311L254.603 104.88ZM253.777 105.148C253.659 105.148 253.461 105.13 253.221 105.046C252.973 104.958 252.749 104.826 252.563 104.664C252.203 104.354 252.173 104.102 252.233 104.3L259.88 101.948C259.536 100.828 258.922 99.5893 257.804 98.6192C256.616 97.589 255.186 97.1469 253.777 97.1469V105.148ZM252.141 103.94C252.147 103.97 252.155 104.02 252.131 104.126C252.105 104.248 252.029 104.478 251.815 104.828C251.363 105.562 250.443 106.581 248.778 107.839L253.607 114.22C257.478 111.292 261.005 107.257 259.974 102.308L252.141 103.94ZM248.778 107.839C245.466 110.347 241.017 112.604 235.314 114.538L237.882 122.116C244.137 119.995 249.42 117.389 253.607 114.22L248.778 107.839ZM235.372 114.518C229.723 116.339 224.462 117.215 219.571 117.215V125.216C225.422 125.216 231.513 124.168 237.824 122.136L235.372 114.518ZM278.076 112.55L274.115 113.116L274.121 113.162L274.129 113.208L278.076 112.55ZM275.796 75.3026L279.792 75.1386V75.1146L279.79 75.0926L275.796 75.3026ZM273.667 57.5152L269.686 57.9133L269.696 58.0153L269.71 58.1153L273.667 57.5152ZM272.299 32.2783L275.628 34.4975L275.68 34.4183L275.73 34.3367L272.299 32.2783ZM277.164 32.5823L273.367 33.8476L273.415 33.9862L273.471 34.121L277.164 32.5823ZM278.076 36.231L274.089 36.5633L274.105 36.7561L274.139 36.9468L278.076 36.231ZM278.38 38.3595H274.379V39.0448L274.607 39.6909L278.38 38.3595ZM279.748 45.5048L275.768 45.9029V45.9165L279.748 45.5048ZM280.508 54.9307L276.514 55.1727L276.516 55.1763L280.508 54.9307ZM281.725 69.0694L277.764 69.6355L279.19 79.6135L284.995 71.3739L281.725 69.0694ZM286.438 62.3801L289.708 64.6846L289.728 64.6546L289.75 64.6225L286.438 62.3801ZM304.225 38.9676L301.27 36.2689L301.259 36.2828L301.246 36.2969L304.225 38.9676ZM319.884 30.4539L322.713 27.625L321.606 26.5188L320.044 26.4563L319.884 30.4539ZM314.411 40.6399L317.304 43.4022L317.308 43.399L314.411 40.6399ZM311.218 43.9845L308.324 41.222L308.242 41.3088L308.164 41.4002L311.218 43.9845ZM301.032 55.2347L303.931 57.9913L303.955 57.9673L303.979 57.9413L301.032 55.2347ZM285.525 73.9344L282.007 72.028L280.811 74.2384L282.281 76.2748L285.525 73.9344ZM301.336 90.3535L298.868 93.5022L298.882 93.5122L298.894 93.5222L301.336 90.3535ZM325.509 107.229L323.321 110.579L323.345 110.593L323.369 110.609L325.509 107.229ZM330.07 110.117L327.93 113.498L328.258 113.706L328.62 113.846L330.07 110.117ZM334.327 113.006L331.252 115.566L331.368 115.706L331.498 115.834L334.327 113.006ZM335.543 118.327L338.998 120.343L339.064 120.231L339.122 120.115L335.543 118.327ZM327.029 118.023L324.727 121.296L324.971 121.468L325.239 121.602L327.029 118.023ZM318.82 112.246L321.122 108.973L321.072 108.939L321.02 108.905L318.82 112.246ZM282.941 81.3838L286.47 79.5014L278.952 81.7019L282.941 81.3838ZM283.853 92.786L279.864 93.1041L279.866 93.1201V93.1341L283.853 92.786ZM284.613 118.783L288.086 120.767L288.142 120.671L288.192 120.571L284.613 118.783ZM282.485 115.846C282.769 115.846 283.055 115.943 283.253 116.077C283.407 116.181 283.367 116.213 283.211 115.955C282.863 115.378 282.397 114.138 282.023 111.892L274.129 113.208C274.565 115.826 275.239 118.235 276.362 120.091C277.546 122.054 279.56 123.848 282.485 123.848V115.846ZM282.037 111.984C281.359 107.241 280.757 98.7092 280.248 86.2387L272.253 86.5628C272.761 99.0252 273.373 107.925 274.115 113.116L282.037 111.984ZM280.248 86.2387L279.792 75.1386L271.797 75.4667L272.253 86.5628L280.248 86.2387ZM279.79 75.0926C279.576 71.0338 278.842 64.9426 277.622 56.9142L269.71 58.1153C270.925 66.1008 271.609 71.868 271.801 75.5127L279.79 75.0926ZM277.648 57.1171C277.538 56.0113 277.118 52.8275 276.414 47.6973L268.486 48.7855C269.202 53.9933 269.594 56.9921 269.686 57.9133L277.648 57.1171ZM276.414 47.6973C275.722 42.6553 275.387 38.2826 275.387 34.5587H267.386C267.386 38.7403 267.76 43.4894 268.486 48.7855L276.414 47.6973ZM275.387 34.5587C275.387 34.7387 275.365 34.8702 275.349 34.942C275.333 35.0134 275.319 35.0404 275.329 35.0184C275.337 34.997 275.361 34.9414 275.411 34.8498C275.461 34.7585 275.531 34.6415 275.628 34.4975L268.97 30.059C268.228 31.1705 267.386 32.748 267.386 34.5587H275.387ZM275.73 34.3367C275.814 34.1942 275.78 34.3099 275.543 34.4669C275.421 34.5479 275.267 34.6263 275.083 34.6817C274.899 34.7373 274.727 34.7587 274.579 34.7587V26.7572C271.845 26.7572 269.954 28.4083 268.868 30.2199L275.73 34.3367ZM274.579 34.7587C274.619 34.7587 274.301 34.7621 273.905 34.4825C273.501 34.1962 273.375 33.8704 273.367 33.8476L280.959 31.3171C280.546 30.078 279.788 28.84 278.52 27.9456C277.262 27.0579 275.856 26.7572 274.579 26.7572V34.7587ZM273.471 34.121C273.829 34.9834 274.025 35.7937 274.089 36.5633L282.063 35.8988C281.925 34.2358 281.511 32.6137 280.857 31.0436L273.471 34.121ZM274.139 36.9468C274.235 37.4793 274.303 37.8806 274.343 38.165C274.363 38.3072 274.375 38.4003 274.379 38.4535C274.387 38.5233 274.379 38.4751 274.379 38.3595H282.381C282.381 37.6173 282.193 36.5137 282.013 35.5153L274.139 36.9468ZM274.607 39.6909C275.061 40.9782 275.477 42.9985 275.768 45.9029L283.729 45.1068C283.411 41.9299 282.915 39.1868 282.153 37.028L274.607 39.6909ZM275.768 45.9165C276.066 48.7925 276.316 51.8773 276.514 55.1727L284.501 54.6886C284.295 51.2948 284.037 48.0957 283.727 45.0932L275.768 45.9165ZM276.516 55.1763C276.92 61.77 277.334 66.6229 277.764 69.6355L285.685 68.5033C285.303 65.8388 284.905 61.2679 284.501 54.685L276.516 55.1763ZM284.995 71.3739L289.708 64.6846L283.167 60.0757L278.454 66.765L284.995 71.3739ZM289.75 64.6225C296.28 54.9785 302.097 47.334 307.204 41.6383L301.246 36.2969C295.811 42.358 289.77 50.322 283.125 60.1377L289.75 64.6225ZM307.178 41.6663C312.207 36.1638 316.371 34.3175 319.724 34.4515L320.044 26.4563C313.261 26.1851 306.986 30.0144 301.27 36.2689L307.178 41.6663ZM317.056 33.2829C316.894 33.1222 316.735 32.8988 316.625 32.6239C316.517 32.3537 316.491 32.121 316.491 31.9742H324.493C324.493 30.3765 323.917 28.8296 322.713 27.625L317.056 33.2829ZM316.491 31.9742C316.491 31.8116 316.531 31.8102 316.443 32.0132C316.353 32.2197 316.165 32.5579 315.801 33.0316L322.143 37.9102C323.377 36.3046 324.493 34.2771 324.493 31.9742H316.491ZM315.801 33.0316C314.913 34.1844 313.505 35.7895 311.514 37.8808L317.308 43.399C319.37 41.2334 321.002 39.3924 322.143 37.9102L315.801 33.0316ZM311.516 37.8774L308.324 41.222L314.111 46.7469L317.304 43.4022L311.516 37.8774ZM308.164 41.4002C307.114 42.6403 303.789 46.3168 298.084 52.5292L303.979 57.9413C309.628 51.7877 313.091 47.9639 314.273 46.5688L308.164 41.4002ZM298.134 52.4774C294.155 56.66 290.862 60.2577 288.272 63.2643L294.333 68.4893C296.81 65.6167 300.004 62.1201 303.931 57.9913L298.134 52.4774ZM288.272 63.2643C285.619 66.3409 283.503 69.2655 282.007 72.028L289.042 75.8407C290.182 73.7383 291.917 71.2898 294.333 68.4893L288.272 63.2643ZM282.281 76.2748C286.962 82.7661 292.497 88.5112 298.868 93.5022L303.803 87.2049C298.014 82.6701 293.007 77.467 288.77 71.5939L282.281 76.2748ZM298.894 93.5222C305.189 98.3731 313.341 104.06 323.321 110.579L327.696 103.878C317.812 97.4229 309.848 91.8618 303.777 87.1849L298.894 93.5222ZM323.369 110.609L327.93 113.498L332.21 106.737L327.65 103.848L323.369 110.609ZM328.62 113.846C329.96 114.368 330.764 114.98 331.252 115.566L337.399 110.445C335.861 108.599 333.829 107.287 331.52 106.389L328.62 113.846ZM331.498 115.834C331.802 116.141 331.926 116.349 331.972 116.443C332.008 116.521 331.998 116.529 331.998 116.503H340C340 113.936 338.788 111.81 337.155 110.177L331.498 115.834ZM331.998 116.503C331.998 116.487 331.998 116.475 332 116.463C332.002 116.451 332.002 116.445 332.002 116.445C332.002 116.445 331.996 116.473 331.964 116.539L339.122 120.115C339.67 119.019 340 117.803 340 116.503H331.998ZM332.086 116.311C331.928 116.583 331.89 116.545 332.056 116.427C332.149 116.363 332.281 116.289 332.457 116.233C332.631 116.175 332.805 116.151 332.959 116.151V124.152C335.921 124.152 337.884 122.254 338.998 120.343L332.086 116.311ZM332.959 116.151C333.107 116.151 332.859 116.165 331.992 115.855C331.208 115.572 330.158 115.114 328.818 114.444L325.239 121.602C326.737 122.35 328.096 122.956 329.288 123.384C330.396 123.782 331.696 124.152 332.959 124.152V116.151ZM329.332 114.75L321.122 108.973L316.517 115.518L324.727 121.296L329.332 114.75ZM321.02 108.905C312.177 103.076 304.685 97.679 298.526 92.712L293.503 98.9412C299.912 104.11 307.624 109.659 316.617 115.586L321.02 108.905ZM298.526 92.712C292.451 87.813 288.548 83.3962 286.47 79.5014L279.41 83.2662C282.199 88.4932 287.01 93.7042 293.503 98.9412L298.526 92.712ZM278.952 81.7019L279.864 93.1041L287.84 92.4679L286.928 81.0657L278.952 81.7019ZM279.866 93.1341C280.783 103.6 281.221 110.421 281.221 113.766H289.222C289.222 110.015 288.748 102.85 287.838 92.4379L279.866 93.1341ZM281.221 113.766C281.221 114.944 281.173 115.82 281.097 116.439C281.013 117.141 280.925 117.213 281.035 116.995L288.192 120.571C288.706 119.543 288.922 118.373 289.04 117.403C289.168 116.349 289.222 115.122 289.222 113.766H281.221ZM281.139 116.799C281.317 116.489 281.613 116.191 281.987 116.003C282.321 115.836 282.537 115.846 282.485 115.846V123.848C284.529 123.848 286.79 123.04 288.086 120.767L281.139 116.799Z" fill="black"/>
</svg>
