<svg width="365" height="106" viewBox="0 0 365 106" fill="none" xmlns="http://www.w3.org/2000/svg">
<path d="M49.5816 97.0339C57.896 97.0339 64.3344 95.8678 68.8971 93.5359C73.4599 91.2039 75.7412 87.807 75.7412 83.3458C75.7412 79.3914 74.3724 75.9948 71.6348 73.1557C68.8971 70.2153 65.5005 67.731 61.4447 65.7032C57.3889 63.6754 51.863 61.2926 44.8668 58.555C44.2584 58.3522 42.7882 57.7945 40.4562 56.882C30.9251 53.0291 23.5741 49.176 18.403 45.3231C13.3333 41.4702 10.7984 36.5018 10.7984 30.4182C10.7984 23.6247 13.4854 18.5045 18.8593 15.057C24.2331 11.6095 31.128 9.8859 39.5436 9.8859C45.7287 9.8859 51.4067 10.697 56.5778 12.3194C61.8503 13.8403 66.0074 15.9695 69.0492 18.7072C72.1925 21.4448 73.7641 24.5373 73.7641 27.9847C72.5473 28.5931 71.3812 28.8973 70.266 28.8973C69.0492 28.8973 67.7819 28.6437 66.4637 28.1368C65.247 27.5284 63.4219 26.5653 60.9884 25.2471C57.0341 23.1178 53.3333 21.4448 49.8858 20.2281C46.4383 18.9099 42.3827 18.2509 37.7185 18.2509C31.8376 18.2509 27.0722 19.2649 23.422 21.2927C19.7718 23.3205 17.9467 26.1596 17.9467 29.8098C17.9467 32.6489 19.1634 35.2344 21.5969 37.5664C24.1318 39.8984 27.2749 41.9771 31.0265 43.8022C34.8794 45.5258 39.9999 47.6044 46.3877 50.0379C54.4991 53.1812 61.1911 56.1215 66.4637 58.8591C71.7362 61.5968 76.1975 65.0949 79.8477 69.3534C83.5993 73.5105 85.475 78.4789 85.475 84.2583C85.475 91.0518 82.2305 96.3241 75.7412 100.076C69.252 103.726 61.1911 105.551 51.5588 105.551C43.9543 105.551 36.4512 104.436 29.0493 102.205C21.6475 99.9743 15.3105 96.6791 10.038 92.3191C4.76551 87.8579 1.41951 82.5347 0 76.3496C0 73.612 0.760454 71.28 2.28136 69.3534C3.80227 67.3256 5.67805 66.3116 7.90872 66.3116C7.90872 72.9021 9.73381 78.5295 13.384 83.1937C17.1356 87.7564 22.1546 91.2039 28.441 93.5359C34.8288 95.8678 41.8756 97.0339 49.5816 97.0339ZM168.152 102.813C165.617 103.32 163.843 102.104 162.829 99.1632C161.815 96.1214 161.257 91.6601 161.156 85.7792C160.953 77.1607 160.649 69.9618 160.243 64.1823C159.939 58.3014 159.331 53.0291 158.418 48.3649C148.988 52.8261 139.66 56.9326 130.433 60.6842C121.308 64.3344 116.745 66.1089 116.745 66.0074L117.049 98.4028C117.049 99.9237 116.137 100.887 114.312 101.292C111.878 101.799 110.256 100.431 109.445 97.186C108.735 93.84 108.228 88.6183 107.924 81.5207C107.721 75.1329 107.417 70.6208 107.011 67.9846C104.172 69.4041 101.739 70.0632 99.7109 69.9618C99.3055 69.1507 99.1026 67.4777 99.1026 64.9428C99.9139 64.6386 100.877 64.2838 101.992 63.8781C103.209 63.4725 104.071 63.0162 104.578 62.5093C105.186 61.901 105.49 61.0391 105.49 59.9238C105.49 54.8542 104.983 47.0467 103.969 36.5018C102.854 26.9707 102.296 19.1128 102.296 12.9277L102.449 5.93154C102.753 5.22172 103.108 4.76544 103.513 4.56272C104.02 4.36 104.679 4.25854 105.49 4.25854C107.214 4.25854 108.076 4.81627 108.076 5.93154L114.312 59.4675C117.151 58.7577 121.866 56.9326 128.456 53.9922C135.047 51.0519 145.186 46.2862 158.874 39.6957L159.483 5.93154C159.483 1.97718 160.953 0 163.893 0C165.11 0 165.921 0.456273 166.327 1.36882C166.834 2.28136 166.986 3.80227 166.783 5.93154L166.631 32.2433C166.631 41.166 167.138 52.7755 168.152 67.0721C168.456 69.9112 168.71 72.6488 168.912 75.285C169.216 77.8199 169.47 80.2533 169.673 82.5853C170.281 88.8717 170.687 92.8769 170.889 94.6005C171.194 96.2229 171.65 97.6929 172.258 99.0111C171.751 101.039 170.383 102.306 168.152 102.813ZM231.278 102.965C222.863 102.965 215.309 101.242 208.617 97.7944C202.027 94.3469 196.856 89.48 193.103 83.1937C189.351 76.9073 187.476 69.6576 187.476 61.4447C187.476 55.868 188.591 50.7477 190.822 46.0835C193.052 41.4193 196.297 37.7185 200.556 34.9809C204.814 32.1418 209.833 30.7224 215.613 30.7224C226.563 30.7224 236.297 32.5981 244.814 36.3497C253.433 39.9999 260.125 45.2724 264.89 52.1672C269.757 59.0619 272.191 67.0214 272.191 76.0454C272.191 82.0276 269.959 87.0466 265.499 91.1024C261.138 95.1582 255.765 98.1492 249.377 100.076C243.091 102.002 237.058 102.965 231.278 102.965ZM228.388 95.0568C238.528 95.0568 247.046 93.5359 253.94 90.494C260.936 87.4522 264.434 82.3826 264.434 75.285C264.434 62.915 259.669 53.6374 250.137 47.4523C240.606 41.166 228.438 38.0227 213.636 38.0227C206.537 38.0227 201.518 40.152 198.579 44.4105C195.739 48.5676 194.32 54.2458 194.32 61.4447C194.32 67.4269 195.739 73.0036 198.579 78.1747C201.518 83.2443 205.575 87.3508 210.746 90.494C215.917 93.5359 221.798 95.0568 228.388 95.0568ZM319.069 102.965C310.654 102.965 304.518 101.394 300.666 98.2507C296.913 95.1074 295.038 89.4294 295.038 81.2165L297.167 47.1482V14.4486C297.167 11.9137 297.674 10.2915 298.688 9.58172C299.703 8.77064 301.932 8.365 305.38 8.365L315.723 8.66918C328.7 9.379 341.376 9.73381 353.745 9.73381C356.381 9.73381 358.46 10.4943 359.981 12.0152C361.604 13.5361 362.414 15.6147 362.414 18.2509C362.414 18.7578 362.262 19.1634 361.958 19.4676C361.654 19.7718 361.3 19.8733 360.894 19.7718L353.745 17.0342L306.141 18.2509C305.532 18.2509 305.178 18.2003 305.076 18.0988C305.482 18.9099 305.685 19.6197 305.685 20.2281V47.1482C310.349 47.4523 314.86 47.6044 319.221 47.6044C326.723 47.6044 334.988 47.2496 344.011 46.5398C344.924 46.4383 346.293 46.3371 348.118 46.2356C350.045 46.0329 351.11 46.0329 351.312 46.2356C351.92 46.844 352.376 47.4017 352.681 47.9086C352.985 48.4155 353.187 49.1253 353.289 50.0379C353.593 52.2686 350.197 53.7387 343.099 54.4485C336.103 55.1583 326.723 55.7159 314.962 56.1215C311.008 56.1215 307.712 56.223 305.076 56.4257C303.859 59.4675 303.251 64.3344 303.251 71.0264L303.403 79.9998V89.8857C305.026 91.2039 306.799 92.0656 308.726 92.4712C310.654 92.8769 313.795 93.0796 318.156 93.0796C322.719 93.0796 327.179 92.826 331.54 92.3191C336.001 91.8122 338.638 91.5081 339.449 91.4066C347.966 90.3926 354.304 89.8857 358.46 89.8857C360.894 89.8857 362.567 90.1392 363.479 90.6461C364.494 91.0518 365 91.8122 365 92.9275C365 99.6195 351.414 102.965 324.24 102.965H319.069Z" fill="#21D69F"/>
</svg>
