<svg width="332" height="122" viewBox="0 0 332 122" fill="none" xmlns="http://www.w3.org/2000/svg">
<path d="M79.8159 120.712C79.1063 121.522 78.0929 121.928 76.7753 121.928C72.0117 121.928 64.4102 117.569 53.9707 108.854C43.6327 100.036 34.4603 91.2682 26.4533 82.5524C26.96 85.289 27.923 89.8999 29.3418 96.3872C29.95 98.9217 30.4567 101.354 30.8621 103.685C31.3688 106.015 31.6223 107.839 31.6223 109.158C31.6223 112.096 30.5581 113.871 28.4297 114.479C27.923 115.797 26.5547 112.502 24.3248 104.597C22.1964 96.6912 20.1694 87.5694 18.2436 77.2314C16.4193 66.7913 15.5071 58.0756 15.5071 51.0822C15.5071 47.5349 15.8111 44.6463 16.4193 42.4164C17.7369 41.4028 18.8517 40.8961 19.7639 40.8961C21.5883 40.8961 22.8551 42.4671 23.5647 45.6091C24.2742 48.6497 24.933 53.464 25.5411 60.0519L25.8451 63.5486C29.7979 63.3466 35.1696 62.4844 41.9603 60.9641C48.8523 59.4438 54.9843 57.3654 60.356 54.7309C65.8291 51.9943 68.5656 48.7511 68.5656 45.001C68.5656 42.9739 67.0959 40.7441 64.1568 38.3116C61.3188 35.7777 56.9099 33.6493 50.9301 31.9263C45.0516 30.2034 37.8049 29.3418 29.1898 29.3418H24.3248C18.5477 29.3418 14.0374 30.3046 10.7941 32.2304C7.5509 34.0548 5.92918 38.0076 5.92918 44.0888C4.40888 44.0888 3.0406 43.126 1.82436 41.2002C0.60812 39.2744 0 37.5009 0 35.8791C0 29.5953 2.98999 25.4905 8.96978 23.5647C15.051 21.6389 23.7673 20.6761 35.119 20.6761C41.0988 20.6761 47.332 21.6389 53.8187 23.5647C60.3054 25.4905 65.7785 28.5311 70.238 32.6865C74.6975 36.7407 76.9273 41.8083 76.9273 47.8895C76.9273 52.045 75.0523 55.491 71.3022 58.2276C67.6535 60.9641 63.346 63.0925 58.3796 64.6129C53.4132 66.1332 47.332 67.7035 40.136 69.3258C34.1562 70.6441 30.254 71.6062 28.4297 72.2144C36.2338 82.7545 43.7341 90.9641 50.9301 96.8433C58.2276 102.722 65.8291 108.043 73.7347 112.806C76.4712 114.429 78.397 115.645 79.5118 116.455C80.6266 117.265 81.1841 118.025 81.1841 118.736C81.1841 119.446 80.7281 120.104 79.8159 120.712ZM158.679 115.695C157.463 115.695 156.601 115.391 156.095 114.783C155.689 114.175 155.487 113.313 155.487 112.198C155.487 109.968 155.993 106.523 157.007 101.86C158.122 97.6034 158.679 94.1067 158.679 91.3702C158.679 83.4646 158.071 77.4334 156.855 73.2786H152.142C147.986 73.2786 142.564 73.1766 135.875 72.9745L121.584 72.8225H101.06L101.364 78.7517C101.364 83.4146 102.124 89.2418 103.644 96.2351C104.151 99.0737 104.607 101.962 105.012 104.901C105.519 107.739 105.773 110.324 105.773 112.654V114.023C104.759 115.037 103.695 115.543 102.58 115.543C99.9449 115.543 97.8671 112.452 96.3468 106.269C94.8265 99.9859 94.0663 92.4344 94.0663 83.6166C94.0663 80.0699 94.2183 76.5732 94.5224 73.1265C92.2926 73.0245 90.7722 72.6705 89.9615 72.0623C89.1507 71.3522 88.7452 70.288 88.7452 68.8697C88.7452 67.7555 89.0493 66.9953 89.6574 66.5892C90.367 66.1832 91.5832 65.8791 93.3061 65.6771L93.1541 61.5722L93.6102 54.5789C94.3197 43.126 95.384 33.8013 96.8028 26.6053C98.2217 19.4093 101.262 13.176 105.925 7.90558C110.587 2.63513 117.58 0 126.905 0C137.547 0 145.858 5.72655 151.838 17.1794C157.818 28.6323 161.872 41.4028 164 55.491C166.129 69.5798 167.193 81.6902 167.193 91.8263C167.193 95.475 167.091 98.6676 166.889 101.404C166.686 104.039 166.281 107.333 165.673 111.286C163.341 114.225 161.01 115.695 158.679 115.695ZM156.247 67.3494C154.321 48.5991 150.875 33.9027 145.909 23.2606C140.942 12.5171 133.493 7.14542 123.56 7.14542C116.161 7.14542 110.688 10.5915 107.141 17.4835C103.695 24.2742 101.617 31.5717 100.908 39.3758C100.198 47.18 99.8435 55.9471 99.8435 65.6771L156.247 67.3494ZM215.571 117.215C208.577 117.215 202.598 115.289 197.631 111.438C192.664 107.587 188.864 102.316 186.229 95.627C183.695 88.9377 182.428 81.3362 182.428 72.8225C182.428 63.2946 184.659 54.2748 189.118 45.7611C193.576 37.146 199.406 30.254 206.601 25.085C213.899 19.8145 221.45 17.1794 229.254 17.1794C235.841 17.1794 240.91 18.6491 244.457 21.5883C248.003 24.5275 249.778 27.9736 249.778 31.9263C249.778 34.2574 249.068 36.3858 247.649 38.3116C246.331 40.2374 244.407 41.7069 241.872 42.7205C241.568 42.1124 241.416 41.1496 241.416 39.8319C241.416 38.6157 241.568 37.3994 241.872 36.1832C242.074 34.5615 242.176 33.396 242.176 32.6865C242.176 31.6729 242.024 30.8115 241.72 30.102C240.302 26.5547 236.449 24.7809 230.166 24.7809C228.443 24.7809 226.415 24.933 224.085 25.237C218.713 25.9466 213.392 28.6323 208.121 33.2946C202.85 37.8555 198.543 43.5821 195.199 50.474C191.854 57.3654 190.182 64.4108 190.182 71.6062C190.182 77.8895 191.196 83.8707 193.222 89.5458C195.351 95.1209 198.391 99.6298 202.344 103.076C206.297 106.523 211.01 108.246 216.483 108.246C223.578 108.246 229.456 107.383 234.119 105.661C238.881 103.939 243.544 101.302 248.105 97.7554C248.611 97.3494 249.17 97.1473 249.778 97.1473C250.892 97.1473 251.652 97.8054 252.058 99.1237C252.564 101.556 250.944 104.191 247.193 107.029C243.442 109.868 238.577 112.3 232.598 114.327C226.619 116.253 220.942 117.215 215.571 117.215ZM278.485 115.847C276.357 115.847 274.887 113.415 274.076 108.55C273.366 103.583 272.758 94.8669 272.252 82.4004L271.796 71.3022C271.592 67.4514 270.884 61.5222 269.668 53.5146C269.566 52.501 269.16 49.4098 268.451 44.2408C267.741 39.0718 267.387 34.5109 267.387 30.5581C267.387 29.95 267.691 29.1898 268.299 28.2776C268.907 27.264 269.668 26.7573 270.58 26.7573C271.896 26.7573 272.758 27.3654 273.164 28.5817C273.67 29.7979 273.974 31.0142 274.076 32.2304C274.279 33.3452 274.381 34.0548 274.381 34.3588C274.989 36.0818 275.445 38.4636 275.749 41.5043C276.053 44.4434 276.305 47.5855 276.509 50.9301C276.913 57.5174 277.319 62.2304 277.725 65.0689L282.438 58.3796C289.025 48.6497 294.955 40.8455 300.226 34.967C305.597 29.0884 310.816 26.2506 315.885 26.4533C316.289 26.8587 316.493 27.3654 316.493 27.9736C316.493 28.9872 315.985 30.1526 314.973 31.4703C313.958 32.7879 312.438 34.5109 310.412 36.6393L307.219 39.9839C306.103 41.3016 302.708 45.0516 297.033 51.2342C293.08 55.389 289.836 58.9377 287.303 61.8763C284.769 64.8149 282.842 67.5014 281.526 69.9339C285.985 76.1171 291.256 81.5902 297.337 86.3532C303.518 91.1161 311.576 96.7412 321.51 103.229L326.071 106.117C327.895 106.827 329.313 107.789 330.328 109.006C331.442 110.12 332 111.286 332 112.502C332 113.11 331.848 113.719 331.544 114.327C330.834 115.543 329.972 116.151 328.959 116.151C327.843 116.151 325.867 115.441 323.03 114.023L314.821 108.246C305.901 102.366 298.299 96.8933 292.016 91.8263C285.731 86.7592 281.374 81.9443 278.941 77.3834L279.854 88.7857C280.766 99.2257 281.222 106.219 281.222 109.766C281.222 112.3 281.018 113.973 280.614 114.783C280.208 115.493 279.498 115.847 278.485 115.847Z" fill="black"/>
</svg>
