<?xml version="1.0" standalone="no"?>
<!DOCTYPE svg PUBLIC "-//W3C//DTD SVG 20010904//EN"
 "http://www.w3.org/TR/2001/REC-SVG-20010904/DTD/svg10.dtd">
<svg version="1.0" xmlns="http://www.w3.org/2000/svg"
 width="474.000000pt" height="474.000000pt" viewBox="0 0 474.000000 474.000000"
 preserveAspectRatio="xMidYMid meet">

<g transform="translate(0.000000,474.000000) scale(0.100000,-0.100000)"
fill="#000000" stroke="none">
<path d="M1913 4066 c-62 -20 -110 -53 -188 -126 -76 -73 -141 -120 -165 -120
-33 0 -137 -59 -183 -103 -27 -27 -61 -74 -77 -109 -25 -52 -37 -65 -82 -90
-29 -16 -65 -41 -80 -55 -35 -33 -68 -100 -68 -137 0 -39 41 -76 85 -76 22 0
35 -5 35 -13 0 -23 -88 -167 -144 -237 -31 -38 -82 -90 -113 -117 -32 -26 -88
-77 -124 -113 -79 -79 -95 -120 -105 -270 -5 -86 -3 -112 10 -144 59 -140 175
-189 456 -189 201 -1 334 33 488 125 87 51 217 188 302 317 95 144 283 338
379 391 131 72 185 114 218 169 57 95 53 189 -12 293 -18 29 -54 94 -80 143
-96 186 -249 384 -337 438 -56 35 -149 45 -215 23z m186 -44 c23 -17 26 -27
29 -84 4 -96 -24 -163 -107 -250 -36 -39 -99 -93 -138 -120 -48 -31 -75 -57
-79 -73 -3 -14 -7 -25 -9 -25 -7 0 -75 73 -75 80 0 24 62 76 134 112 104 52
143 82 178 137 76 120 -20 218 -161 167 -43 -15 -56 -40 -14 -27 86 28 88 25
17 -41 -137 -129 -233 -181 -352 -192 -88 -8 -120 -28 -152 -96 -21 -44 -45
-68 -57 -56 -2 2 7 26 20 53 44 84 116 145 213 177 68 22 125 61 209 141 65
63 117 97 175 116 41 14 140 3 169 -19z m151 -197 c0 -79 -22 -141 -106 -295
-78 -144 -106 -225 -107 -312 -1 -38 -5 -68 -9 -68 -14 0 -9 113 7 175 9 32
51 128 95 212 91 175 114 244 108 314 -3 27 -1 46 4 43 4 -3 8 -34 8 -69z
m-54 -66 c-9 -34 -48 -120 -87 -193 -39 -72 -82 -165 -96 -206 -22 -66 -25
-86 -20 -170 3 -68 1 -102 -9 -121 -7 -14 -18 -48 -24 -75 -7 -27 -19 -64 -27
-82 -8 -18 -20 -47 -28 -65 -13 -30 -14 -23 -17 103 -8 351 10 418 151 587 71
86 144 219 158 288 5 28 8 34 11 18 2 -12 -4 -50 -12 -84z m213 -123 c16 -38
18 -47 6 -42 -8 3 -15 1 -15 -3 0 -5 6 -12 13 -14 7 -3 4 -6 -7 -6 -15 -1 -17
-7 -14 -35 2 -19 0 -33 -4 -30 -4 3 -16 -13 -27 -34 -11 -21 -35 -57 -55 -81
-32 -38 -39 -71 -15 -71 12 0 11 18 -1 22 -7 2 -5 11 5 23 15 20 15 20 13 0
-2 -32 13 -85 26 -85 6 0 -11 -14 -39 -30 -27 -16 -56 -28 -62 -25 -7 2 -13
-1 -13 -7 0 -7 -4 -7 -13 1 -8 6 -18 7 -22 3 -5 -4 -4 0 0 8 8 13 7 13 -8 1
-24 -19 -21 -30 6 -24 17 4 14 0 -11 -16 -17 -11 -33 -20 -35 -18 -3 2 -72
-74 -120 -133 l-29 -35 31 60 c18 33 54 87 81 120 28 33 84 101 125 150 96
116 147 215 153 296 3 33 6 59 7 57 1 -2 12 -25 24 -52z m-768 23 c21 -7 47
-21 58 -33 19 -20 19 -22 3 -43 -15 -21 -21 -22 -57 -12 -21 6 -64 8 -95 5
-88 -9 -160 -14 -160 -9 0 15 43 84 57 92 24 14 147 14 194 0z m802 -123 c-3
-15 -2 -17 5 -8 7 10 11 5 16 -18 9 -48 8 -72 -5 -64 -6 3 -8 17 -5 30 4 13 2
24 -3 24 -12 0 -22 -29 -15 -43 5 -9 4 -9 -5 -1 -12 11 -33 74 -25 74 3 0 9
-10 15 -22 9 -21 9 -21 6 5 -3 15 -1 30 4 33 4 2 6 12 3 22 -5 13 -4 14 4 3 5
-7 7 -23 5 -35z m-783 -3 c5 -4 2 -37 -6 -73 -7 -36 -14 -78 -14 -95 l-1 -30
-21 40 c-12 22 -21 50 -19 63 3 27 -15 52 -38 52 -15 1 -61 33 -61 43 0 17
145 17 160 0z m-330 -27 c0 -14 -4 -28 -10 -31 -5 -3 -10 -14 -10 -23 0 -9 -9
-30 -21 -47 l-20 -30 6 45 c10 69 25 110 41 110 8 0 14 -10 14 -24z m65 14
c-3 -5 -10 -10 -16 -10 -5 0 -9 5 -9 10 0 6 7 10 16 10 8 0 12 -4 9 -10z
m-139 -37 c-3 -16 -10 -58 -17 -94 -18 -108 -84 -152 -131 -88 -19 25 -19 28
-3 65 19 45 45 76 99 115 49 36 59 36 52 2z m487 -11 c52 -74 48 -144 -8 -168
-57 -24 -69 -12 -61 65 8 78 24 141 35 141 5 0 20 -17 34 -38z m-225 -18 c-4
-3 -12 5 -18 18 -12 22 -12 22 6 6 10 -10 15 -20 12 -24z m856 -11 c-17 -33
-54 -83 -43 -58 22 51 53 105 57 100 3 -2 -3 -22 -14 -42z m-986 17 c-7 -10
-14 -17 -17 -15 -4 4 18 35 25 35 2 0 -1 -9 -8 -20z m79 1 c11 -17 8 -21 -19
-30 -38 -14 -42 -11 -27 23 14 31 30 33 46 7z m1067 -38 c70 -141 21 -270
-136 -353 -188 -100 -310 -218 -485 -473 -72 -104 -114 -154 -170 -202 -183
-156 -417 -224 -679 -196 -149 16 -206 34 -255 78 -68 62 -96 137 -77 211 19
76 72 91 168 46 71 -33 131 -83 192 -160 70 -89 130 -103 280 -65 202 52 423
227 504 399 162 343 206 400 375 481 139 66 232 158 245 243 4 21 8 38 10 38
2 0 14 -21 28 -47z m-124 12 c4 3 3 -11 -3 -30 -10 -34 -29 -45 -42 -25 -3 6
1 7 10 4 10 -4 15 -1 13 12 -2 30 3 60 9 46 2 -6 8 -10 13 -7z m48 -20 c-3 -3
-9 2 -12 12 -6 14 -5 15 5 6 7 -7 10 -15 7 -18z m-863 -67 c35 -56 37 -64 32
-115 -7 -65 -42 -142 -91 -198 -38 -45 -140 -110 -155 -100 -13 7 -15 64 -4
92 6 15 8 13 13 -11 6 -37 33 -55 58 -40 26 17 22 57 -9 71 -42 20 -51 37 -38
67 15 32 35 33 65 5 33 -31 74 -19 74 20 0 23 -6 31 -29 39 -53 19 -80 92 -35
92 10 0 25 -7 35 -16 26 -23 69 -11 69 19 0 27 -17 47 -40 47 -9 0 -33 18 -54
39 -37 37 -37 39 -16 46 26 8 24 10 44 -38 9 -23 20 -36 27 -32 11 7 9 33 -6
68 -17 41 25 3 60 -55z m840 51 c-6 -16 -4 -20 6 -13 22 13 -9 -26 -50 -63
-37 -33 -61 -42 -61 -22 0 6 6 9 13 7 6 -3 29 13 50 34 20 21 33 38 28 38 -5
0 -7 9 -4 20 3 11 10 20 15 20 5 0 6 -10 3 -21z m-1065 3 c0 -8 -43 -32 -56
-32 -16 0 6 25 27 31 13 4 25 7 27 8 1 1 2 -3 2 -7z m69 -41 c45 -35 -11 -89
-61 -58 -24 15 -23 32 4 57 26 24 27 24 57 1z m931 -11 c0 -5 -4 -10 -10 -10
-5 0 -10 5 -10 10 0 6 5 10 10 10 6 0 10 -4 10 -10z m-1090 -36 c0 -12 6 -15
25 -10 42 11 30 -21 -16 -45 -52 -26 -66 -15 -43 35 19 38 34 47 34 20z m215
-4 c3 -5 -1 -10 -9 -10 -9 0 -16 5 -16 10 0 6 4 10 9 10 6 0 13 -4 16 -10z
m290 -122 c-3 -112 -17 -182 -43 -212 -10 -10 -45 -32 -78 -48 -34 -16 -83
-51 -109 -77 -51 -51 -125 -157 -125 -178 0 -7 -4 -13 -10 -13 -5 0 -10 -7
-10 -15 0 -9 -20 -35 -44 -59 -63 -64 -140 -95 -236 -97 -65 -1 -102 10 -156
43 -85 53 -170 72 -215 48 -16 -9 -19 -7 -19 13 0 44 50 125 112 179 136 120
202 186 246 246 32 43 51 61 62 57 9 -3 27 4 40 15 23 20 40 26 40 13 0 -3
-17 -31 -37 -61 l-38 -55 -3 32 c-2 17 -7 31 -12 31 -14 0 -30 -36 -30 -67 0
-78 96 -125 211 -103 163 31 294 165 330 338 10 51 12 54 37 49 21 -4 62 6 88
22 1 1 0 -45 -1 -101z m-386 48 c7 -8 9 -25 6 -39 -5 -19 -15 -27 -41 -32 -44
-8 -57 1 -49 34 11 46 59 67 84 37z m-105 -29 c-3 -9 -12 -13 -21 -10 -14 5
-13 8 2 20 22 15 28 12 19 -10z m152 -35 c-22 -5 -30 3 -21 18 5 8 11 7 22 -2
15 -12 14 -13 -1 -16z m-188 -6 c10 -10 6 -15 -22 -23 -42 -13 -56 -5 -45 25
7 18 14 22 31 17 13 -4 29 -13 36 -19z m117 -45 c-3 -6 -11 -8 -17 -5 -6 4 -5
9 3 15 16 10 23 4 14 -10z m-36 -25 c14 -15 20 -29 15 -37 -4 -7 -10 -43 -13
-79 l-6 -65 -34 -3 c-44 -4 -93 5 -115 21 -17 12 -17 15 7 43 13 16 39 55 57
87 36 63 54 70 89 33z m510 -153 c-18 -56 -74 -166 -140 -273 -32 -52 -72
-126 -90 -163 -17 -37 -33 -66 -36 -64 -8 9 36 108 82 184 88 143 151 260 170
317 11 32 21 53 23 47 2 -6 -2 -28 -9 -48z m-213 -302 c-19 -28 -43 -69 -52
-91 -11 -25 -24 -40 -36 -40 -10 0 -18 5 -18 10 0 6 3 9 8 9 19 -3 32 2 32 12
0 8 -5 8 -15 -1 -9 -8 -15 -8 -15 -2 0 6 8 13 18 16 15 5 49 46 38 46 -10 0
-85 -68 -80 -73 3 -3 -4 -8 -15 -12 -23 -7 -29 -25 -9 -25 9 0 9 -3 0 -12 -10
-10 -15 -10 -23 2 -9 12 -10 12 -5 -4 5 -13 2 -17 -9 -13 -8 4 -17 1 -21 -5
-5 -7 -2 -8 6 -3 8 5 11 3 8 -6 -3 -8 -11 -13 -18 -11 -6 1 -14 -7 -17 -18 -3
-11 -9 -18 -13 -15 -5 3 -15 -8 -23 -25 -9 -16 -11 -30 -6 -30 5 0 9 5 9 11 0
5 4 8 8 5 14 -9 32 10 34 36 1 15 5 25 9 22 4 -2 19 6 33 17 15 12 34 18 42
15 11 -4 15 -2 11 8 -3 8 4 18 18 24 22 10 23 10 14 -20 -4 -17 -6 -35 -3 -39
2 -4 -10 -16 -27 -25 -51 -26 -173 -74 -177 -69 -2 2 7 28 20 57 19 40 48 74
113 133 49 44 111 101 139 127 28 25 52 45 54 43 2 -2 -12 -26 -32 -54z m-231
-251 c3 -5 1 -10 -4 -10 -6 0 -11 5 -11 10 0 6 2 10 4 10 3 0 8 -4 11 -10z"/>
<path d="M2242 3307 c-23 -25 -27 -44 -13 -66 7 -11 14 -10 39 8 17 11 36 21
43 21 10 0 10 3 2 11 -9 9 -16 8 -28 -5 -22 -22 -28 -20 -15 4 6 11 17 20 25
20 8 0 15 5 15 11 0 5 -5 7 -10 4 -6 -4 -17 -2 -24 4 -9 8 -18 5 -34 -12z m34
1 c4 -7 4 -10 0 -6 -11 9 -36 -14 -28 -26 3 -5 0 -6 -7 -2 -9 6 -8 13 5 27 20
22 21 23 30 7z"/>
<path d="M2200 3240 c0 -5 5 -10 10 -10 6 0 10 5 10 10 0 6 -4 10 -10 10 -5 0
-10 -4 -10 -10z"/>
<path d="M1475 2430 c-10 -11 -24 -20 -32 -20 -7 0 -13 -7 -13 -15 0 -16 9
-19 35 -9 13 6 14 9 3 16 -10 7 -8 8 7 7 33 -4 65 10 58 27 -4 12 -7 12 -18
-3 -8 -10 -17 -15 -21 -10 -4 4 -2 7 4 7 7 0 12 5 12 10 0 16 -15 12 -35 -10z"/>
<path d="M2841 3094 c-68 -31 -281 -243 -356 -353 -27 -40 -72 -98 -99 -130
-66 -76 -96 -142 -95 -211 0 -106 44 -176 164 -265 155 -114 270 -263 389
-501 36 -72 89 -162 119 -200 170 -217 434 -334 756 -334 137 0 198 17 258 73
69 63 82 101 85 248 3 119 2 126 -26 183 -16 33 -62 93 -107 142 -113 120
-181 229 -233 372 l-26 74 31 -7 c58 -13 109 28 109 88 0 59 -65 149 -145 205
-23 15 -34 34 -44 70 -25 100 -104 192 -209 244 -45 22 -80 51 -125 101 -135
151 -171 183 -231 206 -77 29 -147 27 -215 -5z m209 -25 c64 -29 105 -63 152
-126 60 -81 125 -141 191 -175 32 -16 78 -47 103 -70 56 -52 126 -188 97 -188
-19 1 -31 18 -47 66 -23 69 -49 92 -130 108 -109 23 -199 86 -312 219 -76 88
-78 102 -11 68 45 -23 58 -12 16 13 -104 61 -209 28 -209 -67 0 -82 72 -171
194 -242 30 -17 60 -46 78 -74 l29 -46 -23 -15 c-13 -8 -32 -25 -44 -37 -27
-29 -29 -29 -30 2 -1 18 -31 54 -95 119 -125 124 -174 215 -174 320 0 82 18
127 55 137 48 13 115 9 160 -12z m-331 -149 c-14 -64 2 -147 62 -305 60 -160
83 -262 74 -328 -12 -93 -20 -84 -20 21 0 115 1 112 -78 322 -45 121 -50 144
-51 220 -1 47 2 94 7 104 13 32 16 13 6 -34z m61 -136 c18 -55 84 -186 126
-247 80 -119 91 -237 47 -510 l-27 -168 -16 55 c-10 29 -20 81 -24 115 -4 34
-13 75 -20 93 -12 27 -12 38 0 70 39 112 26 212 -56 433 -45 118 -53 152 -56
220 -3 70 -2 74 5 29 5 -28 14 -69 21 -90z m-228 -62 c-6 -98 49 -226 179
-418 52 -76 125 -221 116 -230 -3 -3 -15 12 -26 34 -11 21 -36 60 -55 85 -20
26 -33 47 -29 47 3 0 -2 9 -12 20 -10 11 -23 20 -28 20 -6 0 -2 -7 9 -15 10
-8 14 -15 8 -15 -6 0 -17 7 -25 16 -10 13 -10 17 2 25 12 8 10 13 -8 28 -13
11 -23 24 -23 30 0 6 -5 11 -11 11 -5 0 -7 -4 -4 -10 3 -5 0 -10 -7 -10 -10 0
-10 -2 0 -9 8 -4 13 -12 12 -17 -1 -5 4 -10 11 -13 7 -2 9 1 5 8 -4 7 -1 9 8
5 12 -5 12 -9 3 -19 -14 -15 -47 1 -47 23 0 9 -6 12 -15 8 -11 -4 -38 16 -81
60 -36 36 -63 68 -60 71 3 3 12 0 21 -7 18 -15 20 1 3 19 -11 10 -8 11 15 6
17 -5 27 -3 27 4 0 6 -7 11 -15 11 -19 0 -19 11 1 36 15 18 15 18 9 -3 -4 -14
-2 -23 4 -23 6 0 11 8 12 18 0 14 2 14 8 -3 5 -12 4 -23 -3 -28 -7 -6 -4 -7 7
-3 9 3 17 2 18 -2 0 -4 2 -19 4 -34 2 -15 -1 -30 -6 -34 -6 -3 -10 0 -8 7 6
51 -14 64 -46 29 -17 -18 -17 -21 -1 -45 9 -14 22 -25 29 -25 7 0 20 -11 31
-24 20 -27 46 -24 46 4 0 10 4 20 9 22 5 2 1 14 -10 27 -12 14 -19 18 -19 9 0
-8 6 -20 13 -27 10 -10 9 -11 -5 -6 -10 4 -18 3 -18 -3 0 -6 6 -12 13 -15 6
-2 9 -8 4 -12 -4 -5 -14 0 -21 11 -8 10 -11 21 -7 24 12 8 20 60 8 53 -5 -3
-7 0 -5 8 3 8 -8 38 -24 68 -15 30 -31 72 -34 93 -4 21 -11 41 -16 44 -5 3 -4
12 2 19 7 8 9 19 5 25 -9 14 -33 -17 -30 -39 1 -9 0 -10 -2 -3 -3 7 -10 9 -16
5 -6 -3 -1 8 12 25 12 18 27 32 32 32 6 0 8 4 5 8 -4 7 19 52 27 52 1 0 1 -26
-1 -58z m910 -82 c24 -11 58 -70 58 -100 0 -13 -85 -2 -130 17 -21 8 -61 13
-99 12 -56 -2 -66 0 -72 17 -13 34 -10 42 29 58 43 19 169 16 214 -4z m-986
-15 c1 -14 -2 -22 -8 -19 -6 4 -8 -2 -3 -17 5 -18 4 -20 -4 -9 -7 11 -10 6 -9
-18 1 -18 -3 -36 -7 -40 -12 -11 3 98 16 114 15 18 14 18 15 -11z m44 -10 c0
-8 -4 -15 -10 -15 -5 0 -7 7 -4 15 4 8 8 15 10 15 2 0 4 -7 4 -15z m-77 -178
c32 -53 124 -140 181 -169 115 -59 215 -217 277 -438 17 -63 42 -135 54 -160
51 -102 181 -245 290 -320 102 -71 252 -117 329 -103 15 3 56 34 94 70 86 83
189 135 266 137 66 0 92 -18 98 -72 13 -101 -62 -207 -169 -238 -47 -14 -83
-16 -193 -11 -292 12 -502 108 -673 307 -27 31 -80 118 -122 202 -130 254
-237 396 -383 504 -42 31 -89 71 -105 88 -86 96 -89 204 -9 320 l27 39 6 -56
c4 -32 17 -74 32 -100z m63 98 c-4 -38 -16 -43 -16 -7 0 18 4 32 9 32 5 0 8
-11 7 -25z m871 -7 c18 -7 33 -14 33 -18 0 -10 -62 -40 -72 -34 -16 10 -48
-27 -42 -50 3 -14 -3 -33 -18 -51 l-23 -30 -6 90 c-5 62 -3 92 5 97 17 12 86
9 123 -4z m-916 -25 c-12 -20 -14 -14 -5 12 4 9 9 14 11 11 3 -2 0 -13 -6 -23z
m754 -52 c4 -39 4 -89 0 -112 -7 -40 -8 -41 -39 -35 -81 16 -88 107 -13 184
17 17 34 32 38 32 4 0 10 -31 14 -69z m-735 29 c0 -5 -5 -10 -11 -10 -5 0 -7
5 -4 10 3 6 8 10 11 10 2 0 4 -4 4 -10z m1060 0 c0 -5 -7 -7 -15 -4 -8 4 -15
8 -15 10 0 2 7 4 15 4 8 0 15 -4 15 -10z m74 -32 c3 -17 6 -49 6 -71 0 -56
-17 -37 -35 39 -18 75 -18 73 4 67 11 -3 21 -17 25 -35z m-214 -3 c-7 -9 -15
-13 -18 -10 -3 2 1 11 8 20 7 9 15 13 18 10 3 -2 -1 -11 -8 -20z m316 -42 c84
-84 87 -199 4 -191 -49 4 -67 41 -73 155 -4 88 -4 92 14 82 11 -5 35 -26 55
-46z m-237 17 c11 -33 5 -36 -34 -18 -28 13 -30 19 -13 36 20 20 35 14 47 -18z
m41 10 c6 -11 8 -20 6 -20 -3 0 -10 9 -16 20 -6 11 -8 20 -6 20 3 0 10 -9 16
-20z m-965 -21 c4 -21 3 -22 -11 -7 -9 9 -13 21 -9 28 9 14 14 9 20 -21z m796
-35 c-25 -41 -26 -54 -7 -54 8 0 23 16 35 35 18 32 23 35 42 24 21 -11 21 -11
-7 -30 -54 -35 -59 -38 -85 -43 -15 -3 -29 -14 -32 -25 -9 -37 41 -72 64 -45
17 21 53 13 57 -12 3 -24 -39 -64 -69 -64 -22 0 -41 -32 -33 -54 9 -24 55 -32
69 -12 7 9 24 16 38 16 18 0 26 -7 31 -26 8 -32 -5 -50 -43 -57 -31 -6 -45
-29 -36 -57 12 -39 75 -30 75 10 0 11 5 20 11 20 11 0 8 -85 -4 -96 -9 -10
-61 23 -106 67 -61 62 -99 147 -107 239 l-6 75 59 63 c66 70 85 79 54 26z
m203 -20 c9 -8 16 -18 16 -20 0 -7 -38 15 -45 26 -10 16 12 12 29 -6z m-36
-52 c7 -45 -71 -53 -87 -9 -7 18 -3 26 18 39 22 15 29 15 46 4 11 -7 21 -23
23 -34z m-335 -27 c24 6 24 5 29 -67 9 -114 39 -181 122 -263 53 -53 86 -76
129 -93 69 -26 155 -29 198 -6 52 27 70 105 32 142 -13 13 -9 32 6 32 5 0 14
-15 22 -32 24 -62 98 -167 176 -251 92 -99 132 -167 140 -239 l6 -53 -23 20
c-36 32 -127 27 -218 -14 -64 -28 -80 -31 -132 -27 -136 13 -259 97 -289 197
-20 70 -96 204 -142 254 -23 24 -60 54 -83 65 -76 36 -92 93 -75 256 l12 112
32 -20 c21 -12 42 -17 58 -13z m227 15 c0 -5 -4 -10 -10 -10 -5 0 -10 5 -10
10 0 6 5 10 10 10 6 0 10 -4 10 -10z m225 -67 c5 -25 3 -33 -8 -33 -19 0 -38
65 -24 79 13 13 21 1 32 -46z m-45 0 c0 -7 -4 -13 -9 -13 -16 0 -33 30 -26 47
6 17 7 17 21 -1 8 -11 14 -26 14 -33z m-86 -9 c9 -3 13 -10 10 -15 -3 -5 2 -6
10 -3 11 4 17 -4 22 -31 3 -20 4 -38 1 -41 -3 -3 -23 0 -45 5 -45 13 -61 48
-33 75 18 18 15 18 35 10z m90 -55 c-8 -14 -24 -10 -24 6 0 9 6 12 15 9 8 -4
12 -10 9 -15z m-154 -4 c0 -9 -9 -15 -21 -15 -18 0 -19 2 -9 15 7 8 16 15 21
15 5 0 9 -7 9 -15z m232 -57 c6 -14 5 -18 -7 -18 -19 0 -30 24 -20 48 6 14 8
15 13 2 2 -8 9 -23 14 -32z m-42 0 c0 -11 -12 -10 -30 2 -13 9 -13 11 0 19 14
9 29 -2 30 -21z m-130 -8 c0 -5 -4 -10 -10 -10 -5 0 -10 5 -10 10 0 6 5 10 10
10 6 0 10 -4 10 -10z m78 -32 c3 -13 23 -57 43 -98 27 -54 34 -77 26 -82 -26
-18 -62 -20 -114 -8 -45 10 -53 15 -46 28 4 10 8 46 8 80 0 55 3 66 24 83 31
25 52 24 59 -3z m68 -23 c19 -18 28 -37 31 -72 l4 -48 -29 50 c-30 50 -48 95
-38 95 3 0 17 -11 32 -25z m-623 -145 c11 -36 46 -124 78 -196 31 -72 63 -151
69 -175 6 -24 13 -52 16 -61 3 -10 2 -18 -3 -18 -5 0 -14 23 -20 51 -7 28 -38
108 -69 178 -63 143 -99 245 -107 311 -6 44 -6 44 4 10 6 -19 20 -64 32 -100z
m237 -330 c87 -98 150 -200 150 -242 0 -15 -4 -15 -40 4 -28 15 -36 24 -28 30
8 4 18 1 26 -9 6 -9 12 -12 12 -6 0 7 -6 18 -12 25 -7 7 -15 22 -16 33 -4 23
-32 65 -32 48 0 -7 5 -15 10 -18 6 -3 10 -10 10 -16 0 -5 -9 -4 -20 3 -13 9
-18 19 -14 35 4 14 2 23 -6 23 -6 0 -8 -5 -4 -12 4 -6 3 -8 -4 -5 -5 4 -8 16
-5 27 3 12 -1 22 -11 26 -9 3 -16 12 -16 18 0 7 -16 27 -35 46 -19 19 -35 29
-35 23 0 -6 7 -14 16 -17 8 -3 13 -10 10 -15 -3 -5 1 -12 9 -15 12 -4 14 -15
9 -47 -5 -31 -4 -40 4 -35 14 8 15 4 6 -18 -11 -29 -24 -17 -24 23 0 22 -5 43
-10 46 -6 4 -9 12 -8 18 1 7 -3 22 -10 34 -7 12 -9 30 -5 40 3 10 2 15 -2 11
-8 -8 -34 29 -49 67 l-7 20 19 -20 c11 -11 62 -67 112 -125z m30 -131 c0 -6
-4 -7 -10 -4 -5 3 -10 11 -10 16 0 6 5 7 10 4 6 -3 10 -11 10 -16z m-45 -19
c3 -5 2 -10 -4 -10 -5 0 -13 5 -16 10 -3 6 -2 10 4 10 5 0 13 -4 16 -10z m50
-3 c7 2 16 -5 20 -16 3 -12 12 -21 18 -21 7 0 4 -5 -6 -11 -22 -13 -60 12 -62
41 -1 13 2 17 8 11 5 -5 15 -7 22 -4z"/>
<path d="M3221 1524 c0 -11 3 -14 6 -6 3 7 2 16 -1 19 -3 4 -6 -2 -5 -13z"/>
<path d="M3290 1381 c0 -5 7 -11 14 -14 10 -4 13 -1 9 9 -6 15 -23 19 -23 5z"/>
</g>
</svg>
