<svg width="39" height="39" viewBox="0 0 39 39" fill="none" xmlns="http://www.w3.org/2000/svg">
<path d="M5.62215 35.5902L6.50383 34.3766L5.62215 35.5902ZM3.40983 33.3779L4.62336 32.4962L3.40983 33.3779ZM35.5902 33.3779L34.3766 32.4962L35.5902 33.3779ZM33.3779 35.5902L32.4962 34.3766L33.3779 35.5902ZM33.3779 3.40983L32.4962 4.62336L33.3779 3.40983ZM35.5902 5.62215L34.3766 6.50383L35.5902 5.62215ZM5.62215 3.40983L6.50383 4.62336L5.62215 3.40983ZM3.40983 5.62215L4.62336 6.50383L3.40983 5.62215ZM28.1584 22.8292C27.7879 23.5701 28.0882 24.4712 28.8292 24.8416C29.5701 25.2121 30.4712 24.9118 30.8416 24.1708L28.1584 22.8292ZM22.1584 22.8292C21.7879 23.5702 22.0882 24.4712 22.8292 24.8416C23.5702 25.2121 24.4712 24.9118 24.8416 24.1708L22.1584 22.8292ZM23.6056 23.2889L22.2639 22.618L22.2639 22.618L23.6056 23.2889ZM23.6056 19.7111L24.9472 19.0403L23.6056 19.7111ZM24.8416 18.8292C24.4712 18.0882 23.5701 17.7879 22.8292 18.1584C22.0882 18.5288 21.7879 19.4299 22.1584 20.1708L24.8416 18.8292ZM29.6056 19.7111L30.9472 19.0403L29.6056 19.7111ZM19.5 36C15.7169 36 13 35.9979 10.8961 35.77C8.82027 35.5451 7.51983 35.1148 6.50383 34.3766L4.74047 36.8037C6.35312 37.9754 8.24188 38.5 10.573 38.7525C12.876 39.0021 15.7837 39 19.5 39V36ZM0 19.5C0 23.2163 -0.00205886 26.124 0.247456 28.427C0.500012 30.7581 1.02465 32.6469 2.1963 34.2595L4.62336 32.4962C3.88518 31.4802 3.4549 30.1797 3.23 28.1039C3.00206 26 3 23.2831 3 19.5H0ZM6.50383 34.3766C5.78222 33.8524 5.14763 33.2178 4.62336 32.4962L2.1963 34.2595C2.90562 35.2358 3.76418 36.0944 4.74047 36.8037L6.50383 34.3766ZM36 19.5C36 23.2831 35.9979 26 35.77 28.1039C35.5451 30.1797 35.1148 31.4802 34.3766 32.4962L36.8037 34.2595C37.9754 32.6469 38.5 30.7581 38.7525 28.427C39.0021 26.124 39 23.2163 39 19.5H36ZM19.5 39C23.2163 39 26.124 39.0021 28.427 38.7525C30.7581 38.5 32.6469 37.9754 34.2595 36.8037L32.4962 34.3766C31.4802 35.1148 30.1797 35.5451 28.1039 35.77C26 35.9979 23.2831 36 19.5 36V39ZM34.3766 32.4962C33.8524 33.2178 33.2178 33.8524 32.4962 34.3766L34.2595 36.8037C35.2358 36.0944 36.0944 35.2358 36.8037 34.2595L34.3766 32.4962ZM19.5 3C23.2831 3 26 3.00206 28.1039 3.23C30.1797 3.4549 31.4802 3.88518 32.4962 4.62336L34.2595 2.1963C32.6469 1.02465 30.7581 0.500012 28.427 0.247456C26.124 -0.00205886 23.2163 0 19.5 0V3ZM39 19.5C39 15.7837 39.0021 12.876 38.7525 10.573C38.5 8.24188 37.9754 6.35312 36.8037 4.74047L34.3766 6.50383C35.1148 7.51983 35.5451 8.82027 35.77 10.8961C35.9979 13 36 15.7169 36 19.5H39ZM32.4962 4.62336C33.2178 5.14763 33.8524 5.78222 34.3766 6.50383L36.8037 4.74047C36.0944 3.76418 35.2358 2.90562 34.2595 2.1963L32.4962 4.62336ZM19.5 0C15.7837 0 12.876 -0.00205886 10.573 0.247456C8.24188 0.500012 6.35312 1.02465 4.74047 2.1963L6.50383 4.62336C7.51983 3.88518 8.82027 3.4549 10.8961 3.23C13 3.00206 15.7169 3 19.5 3V0ZM3 19.5C3 15.7169 3.00206 13 3.23 10.8961C3.4549 8.82027 3.88518 7.51983 4.62336 6.50383L2.1963 4.74047C1.02465 6.35312 0.500012 8.24188 0.247456 10.573C-0.00205886 12.876 0 15.7837 0 19.5H3ZM4.74047 2.1963C3.76418 2.90562 2.90562 3.76418 2.1963 4.74047L4.62336 6.50383C5.14763 5.78222 5.78222 5.14763 6.50383 4.62336L4.74047 2.1963ZM16 19.5C16 20.8807 14.8807 22 13.5 22V25C16.5376 25 19 22.5376 19 19.5H16ZM13.5 22C12.1193 22 11 20.8807 11 19.5H8C8 22.5376 10.4624 25 13.5 25V22ZM11 19.5C11 18.1193 12.1193 17 13.5 17V14C10.4624 14 8 16.4624 8 19.5H11ZM13.5 17C14.8807 17 16 18.1193 16 19.5H19C19 16.4624 16.5376 14 13.5 14V17ZM17.5 21H29.2639V18H17.5V21ZM30.8416 24.1708L30.9472 23.9597L28.2639 22.618L28.1584 22.8292L30.8416 24.1708ZM30.9472 23.9597C31.7214 22.4113 31.7214 20.5887 30.9472 19.0403L28.2639 20.382C28.6158 21.0858 28.6158 21.9142 28.2639 22.618L30.9472 23.9597ZM24.8416 24.1708L24.9472 23.9597L22.2639 22.618L22.1584 22.8292L24.8416 24.1708ZM24.9472 19.0403L24.8416 18.8292L22.1584 20.1708L22.2639 20.382L24.9472 19.0403ZM24.9472 23.9597C25.7214 22.4113 25.7214 20.5887 24.9472 19.0403L22.2639 20.382C22.6158 21.0858 22.6158 21.9142 22.2639 22.618L24.9472 23.9597ZM29.2639 21C28.8405 21 28.4533 20.7607 28.2639 20.382L30.9472 19.0403C30.6284 18.4027 29.9768 18 29.2639 18V21Z" fill="#2D264B"/>
</svg>
