<svg width="41" height="41" viewBox="0 0 41 41" fill="none" xmlns="http://www.w3.org/2000/svg">
<path d="M9.15986 29.2826L8.4119 30.5988H8.4119L9.15986 29.2826ZM4.48881 26.2341L3.42617 27.3125L4.48881 26.2341ZM1.7362 15.3221L3.24569 15.4379L1.7362 15.3221ZM1.65191 20.8992L3.14008 20.6211L1.65191 20.8992ZM25.6093 32.5071L24.8028 31.2259L25.6093 32.5071ZM12.9504 31.4365L13.6984 30.1203L12.9504 31.4365ZM17.3151 33.628L16.8775 35.0773L17.3151 33.628ZM31.4366 12.9504L32.7529 12.2024L31.4366 12.9504ZM33.628 17.315L35.0773 16.8775L33.628 17.315ZM32.5071 25.6093L31.226 24.8027L32.5071 25.6093ZM15.3221 1.73614L15.438 3.24563L15.3221 1.73614ZM20.8993 1.65185L20.6212 3.14001L20.8993 1.65185ZM29.2826 9.15981L27.9664 9.90777L29.2826 9.15981ZM26.2342 4.48874L27.3125 3.42611L26.2342 4.48874ZM8.13583 2.82609L8.73129 4.218V4.218L8.13583 2.82609ZM2.82615 8.13577L4.21806 8.73123H4.21806L2.82615 8.13577ZM22.1882 34.5521L23.2587 33.4816L23.2587 33.4816L22.1882 34.5521ZM6.21939 4.07815C5.62816 3.48693 4.6696 3.48693 4.07837 4.07815C3.48715 4.66938 3.48715 5.62795 4.07837 6.21917L6.21939 4.07815ZM15.078 17.2188C15.6692 17.81 16.6278 17.81 17.219 17.2188C17.8103 16.6276 17.8103 15.669 17.219 15.0778L15.078 17.2188ZM33.9654 21.6016L32.4655 21.3962L33.9654 21.6016ZM21.6015 33.9654L21.3961 32.4655L21.6015 33.9654ZM27.9664 9.90777L30.1203 13.6983L32.7529 12.2024L30.5989 8.41184L27.9664 9.90777ZM13.6984 30.1203L9.90782 27.9663L8.4119 30.5988L12.2025 32.7528L13.6984 30.1203ZM9.90782 27.9663C7.34895 26.5122 6.32051 25.9137 5.55144 25.1558L3.42617 27.3125C4.54647 28.4164 6.00228 29.2296 8.4119 30.5988L9.90782 27.9663ZM0.22671 15.2062C0.0146659 17.9696 -0.125172 19.6312 0.163742 21.1773L3.14008 20.6211C2.94174 19.5598 3.02051 18.3724 3.24569 15.4379L0.22671 15.2062ZM5.55144 25.1558C4.30343 23.926 3.46193 22.3435 3.14008 20.6211L0.163742 21.1773C0.599187 23.5075 1.7377 25.6485 3.42617 27.3125L5.55144 25.1558ZM28.1653 28.1652C26.3328 29.9977 25.5826 30.735 24.8028 31.2259L26.4159 33.7883C27.5534 33.0722 28.5817 32.0308 30.3063 30.3062L28.1653 28.1652ZM12.2025 32.7528C14.323 33.9578 15.5908 34.6888 16.8775 35.0773L17.7527 32.1786C16.8706 31.9123 15.9516 31.4007 13.6984 30.1203L12.2025 32.7528ZM30.1203 13.6983C31.4007 15.9515 31.9124 16.8705 32.1787 17.7526L35.0773 16.8775C34.6889 15.5908 33.9578 14.3229 32.7529 12.2024L30.1203 13.6983ZM30.3063 30.3062C32.0309 28.5816 33.0722 27.5533 33.7883 26.4158L31.226 24.8027C30.735 25.5825 29.9978 26.3327 28.1653 28.1652L30.3063 30.3062ZM15.438 3.24563C18.3725 3.02045 19.5598 2.94168 20.6212 3.14001L21.1774 0.163681C19.6313 -0.125234 17.9697 0.0146043 15.2063 0.226648L15.438 3.24563ZM30.5989 8.41184C29.2296 6.00222 28.4165 4.54641 27.3125 3.42611L25.1559 5.55138C25.9137 6.32045 26.5123 7.34889 27.9664 9.90777L30.5989 8.41184ZM20.6212 3.14001C22.3435 3.46186 23.926 4.30337 25.1559 5.55138L27.3125 3.42611C25.6486 1.73764 23.5076 0.599126 21.1774 0.163681L20.6212 3.14001ZM15.2063 0.226648C11.5551 0.50682 9.36128 0.655204 7.54038 1.43418L8.73129 4.218C9.97832 3.68452 11.5527 3.54375 15.438 3.24563L15.2063 0.226648ZM3.24569 15.4379C3.54381 11.5527 3.68458 9.97826 4.21806 8.73123L1.43424 7.54032C0.655265 9.36122 0.506882 11.555 0.22671 15.2062L3.24569 15.4379ZM7.54038 1.43418C4.79542 2.60847 2.60853 4.79536 1.43424 7.54032L4.21806 8.73123C5.08601 6.70234 6.7024 5.08595 8.73129 4.218L7.54038 1.43418ZM25.6321 35.8549L23.2587 33.4816L21.1177 35.6226L23.4911 37.996L25.6321 35.8549ZM33.4816 23.2588L35.8549 25.6321L37.9959 23.4911L35.6226 21.1178L33.4816 23.2588ZM35.8549 35.8549C33.032 38.6779 28.4551 38.6779 25.6321 35.8549L23.4911 37.996C27.4965 42.0014 33.9905 42.0014 37.9959 37.996L35.8549 35.8549ZM37.9959 37.996C42.0013 33.9906 42.0013 27.4965 37.9959 23.4911L35.8549 25.6321C38.6779 28.4551 38.6779 33.032 35.8549 35.8549L37.9959 37.996ZM4.07837 6.21917L15.078 17.2188L17.219 15.0778L6.21939 4.07815L4.07837 6.21917ZM32.1787 17.7526C32.5391 18.9462 32.6309 20.1886 32.4655 21.3962L35.4654 21.807C35.6891 20.1735 35.5649 18.4923 35.0773 16.8775L32.1787 17.7526ZM32.4655 21.3962C32.3015 22.5937 31.8847 23.7564 31.226 24.8027L33.7883 26.4158C34.6795 25.0003 35.2435 23.4269 35.4654 21.807L32.4655 21.3962ZM35.6226 21.1178L35.0359 20.5311L32.8949 22.6721L33.4816 23.2588L35.6226 21.1178ZM24.8028 31.2259C23.7564 31.8846 22.5937 32.3015 21.3961 32.4655L21.8069 35.4653C23.4269 35.2435 25.0003 34.6794 26.4159 33.7883L24.8028 31.2259ZM21.3961 32.4655C20.1886 32.6308 18.9462 32.539 17.7527 32.1786L16.8775 35.0773C18.4923 35.5648 20.1735 35.689 21.8069 35.4653L21.3961 32.4655ZM23.2587 33.4816L22.672 32.8949L20.531 35.0359L21.1177 35.6226L23.2587 33.4816Z" fill="#2D264B"/>
</svg>
