<?xml version="1.0" standalone="no"?>
<!DOCTYPE svg PUBLIC "-//W3C//DTD SVG 20010904//EN"
 "http://www.w3.org/TR/2001/REC-SVG-20010904/DTD/svg10.dtd">
<svg version="1.0" xmlns="http://www.w3.org/2000/svg"
 width="225.000000pt" height="225.000000pt" viewBox="0 0 225.000000 225.000000"
 preserveAspectRatio="xMidYMid meet">
<metadata>
Created by potrace 1.10, written by Peter Selinger 2001-2011
</metadata>
<g transform="translate(0.000000,225.000000) scale(0.100000,-0.100000)"
fill="#000000" stroke="none">
<path d="M910 1510 c-514 -49 -844 -229 -790 -430 9 -32 28 -59 69 -99 256
-250 1058 -328 1596 -154 172 55 319 163 344 254 50 183 -218 349 -669 414
-131 19 -424 27 -550 15z m400 -41 c463 -42 754 -224 664 -415 -56 -117 -289
-224 -584 -266 -144 -21 -444 -16 -591 10 -462 82 -666 292 -460 473 172 153
576 235 971 198z m-1005 -158 c3 -6 -5 -19 -17 -30 -12 -12 -19 -21 -15 -21 3
0 -4 -11 -17 -25 -24 -25 -36 -65 -36 -114 0 -40 20 -102 30 -96 6 4 7 -1 3
-11 -4 -11 -2 -15 4 -11 14 9 27 -23 14 -36 -6 -6 -13 -1 -21 12 -6 12 -15 19
-19 17 -4 -3 -8 1 -8 9 0 8 5 11 11 8 6 -4 7 -2 3 3 -9 9 -13 10 -42 13 -8 0
-14 4 -13 9 0 4 -6 23 -14 42 -9 19 -14 43 -12 53 6 36 28 87 37 87 4 0 5 5 1
12 -5 7 -2 9 7 6 8 -3 23 4 34 15 11 11 14 16 6 12 -10 -5 -12 -4 -7 4 4 6 11
9 15 7 12 -8 52 24 46 35 -4 5 -4 9 -1 9 3 0 7 -4 11 -9z m1715 -53 c0 -5 4
-7 9 -4 5 3 8 -2 7 -12 0 -9 5 -16 12 -14 8 1 11 -1 8 -6 -3 -5 6 -20 18 -33
18 -20 23 -34 20 -61 -6 -48 -31 -108 -49 -114 -8 -4 -12 -10 -9 -15 3 -5 -2
-6 -10 -3 -9 3 -16 1 -16 -5 0 -6 -7 -11 -16 -11 -9 0 -12 -5 -8 -12 4 -7 3
-8 -4 -4 -13 8 1 40 28 64 8 7 10 11 3 8 -7 -4 -6 5 4 25 22 45 12 130 -21
174 -18 23 -22 35 -13 38 16 5 37 -3 37 -15z"/>
<path d="M1081 1309 c-51 -16 -80 -38 -101 -78 -41 -82 -34 -181 17 -242 37
-43 80 -59 161 -59 l69 0 7 47 c3 25 5 48 3 49 -1 2 -22 -1 -45 -7 -87 -19
-139 29 -129 121 8 67 43 93 119 88 l59 -4 -7 40 c-3 23 -7 42 -8 43 -8 9
-118 10 -145 2z m-15 -75 c-26 -27 -46 -79 -46 -125 0 -36 20 -89 32 -86 6 1
12 -3 15 -10 6 -16 -26 -6 -57 18 -20 15 -21 18 -5 12 16 -5 18 -4 9 8 -16 20
-26 117 -13 121 6 2 12 15 12 30 1 14 5 24 9 22 4 -3 13 4 20 16 7 11 21 20
32 20 17 0 16 -3 -8 -26z"/>
<path d="M640 1125 l0 -185 48 0 47 0 -3 136 c-2 75 -1 142 1 149 4 8 19 10
49 6 38 -5 43 -9 46 -35 4 -34 -6 -46 -46 -55 l-29 -6 35 -97 35 -98 48 0 c27
0 49 2 49 5 0 2 -15 39 -34 82 -31 69 -33 79 -18 84 46 18 68 71 52 129 -15
57 -49 70 -180 70 l-100 0 0 -185z m70 127 c0 -4 -4 -12 -9 -17 -6 -6 -12 -37
-14 -70 -3 -57 -3 -56 -5 18 -2 63 1 77 13 77 8 0 15 -4 15 -8z"/>
<path d="M1255 1293 c4 -10 34 -94 68 -186 l60 -168 55 3 54 3 64 165 c35 91
68 173 74 183 10 17 6 18 -46 15 l-57 -3 -46 -138 -46 -138 -41 138 -41 138
-53 3 c-47 3 -52 1 -45 -15z m235 -264 c0 -5 -5 -7 -12 -3 -8 5 -9 2 -5 -10 4
-9 3 -15 -2 -11 -5 3 -11 0 -13 -7 -2 -6 -14 -12 -27 -13 -18 -1 -21 2 -17 17
3 15 1 18 -12 13 -13 -5 -14 -4 -5 6 10 10 16 9 29 -2 15 -12 18 -12 28 4 12
19 36 23 36 6z"/>
</g>
</svg>
