<svg width="40" height="43" viewBox="0 0 40 43" fill="none" xmlns="http://www.w3.org/2000/svg">
<path d="M11.8642 19.5L12.6642 20.3C16.6407 24.2765 23.0878 24.2765 27.0642 20.3L27.8642 19.5M27.8642 9.66536V9.5C27.8642 5.08172 24.2825 1.5 19.8642 1.5C15.4459 1.5 11.8642 5.08172 11.8642 9.5V9.66536M27.8642 9.66536C26.2908 9.5 24.2857 9.5 21.4884 9.5H18.24C15.4427 9.5 13.4376 9.5 11.8642 9.66536M27.8642 9.66536C29.0683 9.79191 30.0197 10.0153 30.8799 10.4097C32.6285 11.2113 34.1088 12.5002 35.1433 14.1218C36.3173 15.9622 36.6569 18.4077 37.3363 23.2989C38.2086 29.5798 38.6448 32.7203 37.6857 35.1593C36.8438 37.3006 35.2892 39.086 33.2841 40.2145C31.0002 41.5 27.8296 41.5 21.4884 41.5H18.24C11.8988 41.5 8.72823 41.5 6.44428 40.2145C4.43921 39.086 2.88462 37.3006 2.04267 35.1593C1.08361 32.7203 1.51979 29.5798 2.39213 23.2989C3.07146 18.4077 3.41112 15.9622 4.58512 14.1218C5.61964 12.5002 7.09993 11.2113 8.84852 10.4097C9.70876 10.0153 10.6601 9.79191 11.8642 9.66536" stroke="white" stroke-width="1.5" stroke-linecap="round"/>
</svg>
