<svg width="29" height="30" viewBox="0 0 29 30" fill="none" xmlns="http://www.w3.org/2000/svg">
<path d="M9.59704 17.4099C8.97498 17.9905 8.94136 18.9654 9.52195 19.5875C10.1025 20.2095 11.0775 20.2432 11.6995 19.6626L9.59704 17.4099ZM18.9624 12.8839C19.5845 12.3033 19.6181 11.3283 19.0375 10.7063C18.4569 10.0842 17.482 10.0506 16.8599 10.6312L18.9624 12.8839ZM6.27633 6.5758L5.92536 8.07598L6.27633 6.5758ZM10.8497 4.11141L12.323 4.56192L10.8497 4.11141ZM2.62597 12.4769L1.55665 13.5861L2.62597 12.4769ZM2.62597 17.4057L1.55665 16.2965L2.62597 17.4057ZM6.27633 23.3068L5.92536 21.8066L6.27633 23.3068ZM10.8497 25.7712L12.323 25.3206L10.8497 25.7712ZM18.1504 25.7712L16.677 25.3206L18.1504 25.7712ZM22.7237 23.3068L23.0747 21.8066L22.7237 23.3068ZM26.3741 17.4057L27.4434 16.2965L26.3741 17.4057ZM26.3741 12.4769L27.4434 13.5861L26.3741 12.4769ZM22.7237 6.5758L23.0747 8.07598L22.7237 6.5758ZM18.1504 4.11141L16.677 4.56192L18.1504 4.11141ZM11.6995 19.6626L18.9624 12.8839L16.8599 10.6312L9.59704 17.4099L11.6995 19.6626ZM5.92536 8.07598C8.62468 8.70749 11.5011 7.24989 12.323 4.56192L9.37631 3.6609C9.07379 4.65027 7.90234 5.37391 6.6273 5.07561L5.92536 8.07598ZM3.6953 11.3677C2.94225 10.6417 2.93599 9.76297 3.3761 9.05151C3.82876 8.31975 4.75242 7.80157 5.92536 8.07598L6.6273 5.07561C4.09578 4.48336 1.86606 5.63525 0.755561 7.43047C-0.367494 9.24598 -0.346698 11.7511 1.55665 13.5861L3.6953 11.3677ZM3.6953 18.5149C5.74876 16.5352 5.74876 13.3474 3.6953 11.3677L1.55665 13.5861C2.35313 14.3539 2.35313 15.5286 1.55665 16.2965L3.6953 18.5149ZM5.92536 21.8066C4.75242 22.081 3.82875 21.5628 3.3761 20.8311C2.93599 20.1196 2.94225 19.2408 3.6953 18.5149L1.55665 16.2965C-0.346699 18.1314 -0.367495 20.6366 0.755561 22.4521C1.86606 24.2473 4.09578 25.3992 6.6273 24.8069L5.92536 21.8066ZM12.323 25.3206C11.5011 22.6327 8.62468 21.1751 5.92536 21.8066L6.6273 24.8069C7.90234 24.5087 9.07379 25.2323 9.37631 26.2217L12.323 25.3206ZM16.677 25.3206C16.3909 26.2564 15.5327 26.8012 14.5 26.8012C13.4673 26.8012 12.6091 26.2564 12.323 25.3206L9.37631 26.2217C10.1383 28.7136 12.4064 29.8826 14.5 29.8826C16.5937 29.8826 18.8618 28.7136 19.6237 26.2217L16.677 25.3206ZM23.0747 21.8066C20.3754 21.1751 17.4989 22.6327 16.677 25.3206L19.6237 26.2217C19.9263 25.2323 21.0977 24.5087 22.3727 24.8069L23.0747 21.8066ZM25.3047 18.5149C26.0578 19.2408 26.0641 20.1196 25.6239 20.8311C25.1713 21.5628 24.2476 22.081 23.0747 21.8066L22.3727 24.8069C24.9043 25.3992 27.134 24.2473 28.2445 22.4521C29.3675 20.6366 29.3467 18.1314 27.4434 16.2965L25.3047 18.5149ZM25.3047 11.3677C23.2513 13.3474 23.2513 16.5352 25.3047 18.5149L27.4434 16.2965C26.6469 15.5286 26.6469 14.3539 27.4434 13.5861L25.3047 11.3677ZM23.0747 8.07598C24.2476 7.80157 25.1713 8.31975 25.6239 9.05151C26.0641 9.76297 26.0578 10.6417 25.3047 11.3677L27.4434 13.5861C29.3467 11.7511 29.3675 9.24598 28.2445 7.43047C27.134 5.63525 24.9043 4.48336 22.3727 5.07561L23.0747 8.07598ZM16.677 4.56192C17.4989 7.24989 20.3754 8.70749 23.0747 8.07598L22.3727 5.07561C21.0977 5.37391 19.9263 4.65028 19.6237 3.6609L16.677 4.56192ZM19.6237 3.6609C18.8618 1.169 16.5937 1.22443e-07 14.5 1.22443e-07C12.4064 1.22443e-07 10.1383 1.169 9.37631 3.6609L12.323 4.56192C12.6091 3.6262 13.4673 3.08139 14.5 3.08139C15.5327 3.08139 16.3909 3.6262 16.677 4.56192L19.6237 3.6609Z" fill="#2D264B"/>
</svg>
