<svg width="28" height="27" viewBox="0 0 28 27" fill="none" xmlns="http://www.w3.org/2000/svg">
<path d="M16.2449 8.42647C16.6241 9.54578 17.7115 10.3036 18.9385 10.3036M5.78531 7.40271C7.63238 7.40271 9.26938 6.21335 9.84016 4.45668C11.1165 0.528646 16.6736 0.528646 17.9499 4.45668C18.5206 6.21335 20.1577 7.40271 22.0047 7.40271C26.1349 7.40271 27.8522 12.6878 24.5108 15.1155C23.0165 16.2012 22.3912 18.1256 22.9619 19.8823C24.2382 23.8103 19.7424 27.0767 16.4011 24.649C14.9067 23.5634 12.8833 23.5634 11.389 24.649C8.04759 27.0767 3.55179 23.8103 4.82808 19.8823C5.39886 18.1256 4.77358 16.2012 3.27927 15.1155C-0.0621185 12.6878 1.65513 7.40271 5.78531 7.40271Z" stroke="#2D264B" stroke-width="1.5" stroke-linecap="round"/>
</svg>
